<?xml version="1.0" encoding="UTF-8" standalone="no"?>
<!-- Created with Inkscape (http://www.inkscape.org/) -->

<svg
   xmlns:dc="http://purl.org/dc/elements/1.1/"
   xmlns:cc="http://creativecommons.org/ns#"
   xmlns:rdf="http://www.w3.org/1999/02/22-rdf-syntax-ns#"
   xmlns:svg="http://www.w3.org/2000/svg"
   xmlns="http://www.w3.org/2000/svg"
   xmlns:sodipodi="http://sodipodi.sourceforge.net/DTD/sodipodi-0.dtd"
   xmlns:inkscape="http://www.inkscape.org/namespaces/inkscape"
   width="744.09448819"
   height="1052.3622047"
   id="svg2"
   version="1.1"
   inkscape:version="0.48.5 r10040"
   sodipodi:docname="groupproject.svg">
  <defs
     id="defs4">
    <inkscape:path-effect
       is_visible="true"
       id="path-effect3283"
       effect="spiro" />
    <inkscape:path-effect
       is_visible="true"
       id="path-effect3230"
       effect="spiro" />
    <inkscape:path-effect
       effect="spiro"
       id="path-effect3202"
       is_visible="true" />
    <inkscape:path-effect
       is_visible="true"
       id="path-effect3166"
       effect="spiro" />
    <inkscape:path-effect
       is_visible="true"
       id="path-effect3128"
       effect="spiro" />
    <inkscape:path-effect
       effect="spiro"
       id="path-effect3098"
       is_visible="true" />
    <inkscape:path-effect
       is_visible="true"
       id="path-effect3187"
       effect="spiro" />
    <inkscape:path-effect
       effect="spiro"
       id="path-effect3151"
       is_visible="true" />
    <inkscape:path-effect
       is_visible="true"
       id="path-effect3129"
       effect="spiro" />
    <inkscape:path-effect
       effect="spiro"
       id="path-effect3097"
       is_visible="true" />
    <inkscape:path-effect
       is_visible="true"
       id="path-effect3187-1"
       effect="spiro" />
  </defs>
  <sodipodi:namedview
     id="base"
     pagecolor="#ffffff"
     bordercolor="#666666"
     borderopacity="1.0"
     inkscape:pageopacity="0.0"
     inkscape:pageshadow="2"
     inkscape:zoom="0.015467961"
     inkscape:cx="7965.3439"
     inkscape:cy="10859.145"
     inkscape:document-units="px"
     inkscape:current-layer="layer1"
     showgrid="false"
     inkscape:window-width="1366"
     inkscape:window-height="706"
     inkscape:window-x="-8"
     inkscape:window-y="-8"
     inkscape:window-maximized="1" />
  <metadata
     id="metadata7">
    <rdf:RDF>
      <cc:Work
         rdf:about="">
        <dc:format>image/svg+xml</dc:format>
        <dc:type
           rdf:resource="http://purl.org/dc/dcmitype/StillImage" />
        <dc:title />
      </cc:Work>
    </rdf:RDF>
  </metadata>
  <g
     inkscape:label="Layer 1"
     inkscape:groupmode="layer"
     id="layer1">
    <rect
       style="fill:#000000;fill-opacity:1"
       id="rect2985"
       width="6298.8896"
       height="6967.5137"
       x="-13519.898"
       y="-8322.5264" />
    <rect
       style="fill:#008080;fill-opacity:1"
       id="rect2987"
       width="5599.0132"
       height="6392.0259"
       x="-13185.175"
       y="-8075.8882" />
    <rect
       style="fill:#000080;fill-opacity:1"
       id="rect2989"
       width="5474.6138"
       height="1060.2896"
       x="-13122.541"
       y="-8047.1646" />
    <text
       xml:space="preserve"
       style="font-size:79.75099182px;font-style:normal;font-weight:normal;line-height:125%;letter-spacing:0px;word-spacing:0px;fill:#000000;fill-opacity:1;stroke:none;font-family:Sans"
       x="-11423.778"
       y="-8354.6855"
       id="text2991"
       sodipodi:linespacing="125%"
       transform="scale(1.1174984,0.89485585)"><tspan
         sodipodi:role="line"
         id="tspan2993"
         x="-11423.778"
         y="-8354.6855"
         style="font-size:319.00396729px;fill:#ffffff">CLAIMS</tspan></text>
    <rect
       style="fill:#800000;fill-opacity:1"
       id="rect2995"
       width="1324.0927"
       height="917.55835"
       x="-10830.842"
       y="-7965.604" />
    <path
       style="fill:#000000;fill-opacity:1"
       id="path2997"
       d="m -10051.422,-7915.2482 c -0.392,52.9334 -11.429,105.2404 -18.347,157.7618 -5.401,42.486 -6.653,85.1943 -7.357,127.864 -0.435,40.6897 -0.29,81.3815 -0.232,122.0722 0.06,40.7472 0.09,81.4943 0.102,122.2415 -1.922,17.8668 1.838,35.1733 5.884,52.6088 0,0 -333.127,142.5493 -333.127,142.5493 l 0,0 c -5,-19.1802 -11.074,-38.3035 -8.633,-58.1086 -0.02,-40.7377 -0.03,-81.4754 -0.1,-122.2131 -0.06,-40.8105 -0.209,-81.6216 0.07,-122.4318 0.518,-43.5905 1.416,-87.2288 6.573,-130.6577 6.567,-51.3931 20.12,-102.6529 18.558,-154.3494 0,0 336.601,-137.337 336.601,-137.337 z"
       inkscape:connector-curvature="0" />
    <path
       style="fill:#000000;fill-opacity:1"
       id="path2999"
       d="m -10453.001,-7626.3154 c 70.788,1.2437 141.604,0.7509 212.403,0.5425 56.316,-0.1895 112.632,-0.2799 168.948,-0.3265 50.957,-0.032 101.9138,-0.029 152.8708,-0.029 50.8443,9e-4 101.6887,0 152.533,0 48.3083,4.5911 92.7017,-4.1612 139.293,-11.8325 0,0 -301.0937,182.6282 -301.0937,182.6282 l 0,0 c -47.4145,7.5394 -94.9171,7.6047 -143.1731,6.635 -50.848,7e-4 -101.696,9e-4 -152.544,0 -50.924,4e-4 -101.847,0 -152.771,-0.029 -55.942,-0.046 -111.884,-0.1356 -167.825,-0.3265 -71.421,-0.2123 -142.858,-0.6831 -214.268,0.5426 0,0 305.627,-177.8111 305.627,-177.8111 z"
       inkscape:connector-curvature="0" />
    <rect
       style="fill:#ffffff;fill-opacity:1"
       id="rect3001"
       width="5347.2969"
       height="5015.9858"
       x="-13046.15"
       y="-6864.5337" />
    <rect
       style="fill:#000000;fill-opacity:1"
       id="rect3003"
       width="1222.2394"
       height="937.94855"
       x="-8946.5557"
       y="-8006.3843" />
    <path
       sodipodi:type="arc"
       style="fill:#ffffff;fill-opacity:1"
       id="path3005"
       sodipodi:cx="-28.571428"
       sodipodi:cy="-1307.6378"
       sodipodi:rx="51.42857"
       sodipodi:ry="51.42857"
       d="m 22.857141,-1307.6378 a 51.42857,51.42857 0 1 1 -102.857139,0 51.42857,51.42857 0 1 1 102.857139,0 z"
       transform="matrix(2.2280405,0,0,1.7841412,-8309.9731,-5438.8866)" />
    <path
       sodipodi:type="arc"
       style="fill:#ffffff;fill-opacity:1"
       id="path3009"
       sodipodi:cx="-28.571428"
       sodipodi:cy="-1307.6378"
       sodipodi:rx="51.42857"
       sodipodi:ry="51.42857"
       d="m 22.857141,-1307.6378 a 51.42857,51.42857 0 1 1 -102.857139,0 51.42857,51.42857 0 1 1 102.857139,0 z"
       transform="matrix(2.2280405,0,0,-1.7841415,-8309.9731,-9799.0553)" />
    <path
       transform="matrix(2.2280405,0,0,-1.7841415,-8297.2414,-9564.5679)"
       d="m 22.857141,-1307.6378 a 51.42857,51.42857 0 1 1 -102.857139,0 51.42857,51.42857 0 1 1 102.857139,0 z"
       sodipodi:ry="51.42857"
       sodipodi:rx="51.42857"
       sodipodi:cy="-1307.6378"
       sodipodi:cx="-28.571428"
       id="path3007"
       style="fill:#ffffff;fill-opacity:1"
       sodipodi:type="arc" />
    <rect
       y="-8394.5439"
       x="3944.563"
       height="9044.9043"
       width="8936.501"
       id="rect3035"
       style="fill:#000000;fill-opacity:1" />
    <rect
       y="-7887.8623"
       x="4306.3125"
       height="8001.3091"
       width="7943.5566"
       id="rect3037"
       style="fill:#008080;fill-opacity:1" />
    <rect
       y="-8099.5239"
       x="4282.0376"
       height="1135.9822"
       width="7767.0654"
       id="rect3039"
       style="fill:#000080;fill-opacity:1" />
    <text
       sodipodi:linespacing="125%"
       id="text3041"
       y="-9462.7402"
       x="3873.9724"
       style="font-size:98.32441711px;font-style:normal;font-weight:normal;line-height:125%;letter-spacing:0px;word-spacing:0px;fill:#000000;fill-opacity:1;stroke:none;font-family:Sans"
       xml:space="preserve"
       transform="scale(1.2859532,0.77763327)"><tspan
         style="font-size:393.29766846px;fill:#ffffff"
         y="-9462.7402"
         x="3873.9724"
         id="tspan3043"
         sodipodi:role="line">ADD CLAIMS</tspan></text>
    <rect
       y="-6523.521"
       x="4565.6001"
       height="801.66223"
       width="7586.437"
       id="rect3051"
       style="fill:#ffffff;fill-opacity:1" />
    <rect
       y="-8055.8325"
       x="10432.958"
       height="1004.9073"
       width="1734.0425"
       id="rect3053"
       style="fill:#000000;fill-opacity:1" />
    <path
       transform="matrix(3.1610152,0,0,1.9115085,11336.104,-5305.045)"
       d="m 22.857141,-1307.6378 a 51.42857,51.42857 0 1 1 -102.857139,0 51.42857,51.42857 0 1 1 102.857139,0 z"
       sodipodi:ry="51.42857"
       sodipodi:rx="51.42857"
       sodipodi:cy="-1307.6378"
       sodipodi:cx="-28.571428"
       id="path3055"
       style="fill:#ffffff;fill-opacity:1"
       sodipodi:type="arc" />
    <path
       transform="matrix(3.1610152,0,0,-1.9115087,11336.104,-9976.4796)"
       d="m 22.857141,-1307.6378 a 51.42857,51.42857 0 1 1 -102.857139,0 51.42857,51.42857 0 1 1 102.857139,0 z"
       sodipodi:ry="51.42857"
       sodipodi:rx="51.42857"
       sodipodi:cy="-1307.6378"
       sodipodi:cx="-28.571428"
       id="path3057"
       style="fill:#ffffff;fill-opacity:1"
       sodipodi:type="arc" />
    <path
       sodipodi:type="arc"
       style="fill:#ffffff;fill-opacity:1"
       id="path3059"
       sodipodi:cx="-28.571428"
       sodipodi:cy="-1307.6378"
       sodipodi:rx="51.42857"
       sodipodi:ry="51.42857"
       d="m 22.857141,-1307.6378 a 51.42857,51.42857 0 1 1 -102.857139,0 51.42857,51.42857 0 1 1 102.857139,0 z"
       transform="matrix(3.1610152,0,0,-1.9115087,11354.169,-9725.2526)" />
    <text
       xml:space="preserve"
       style="font-size:98.32441711px;font-style:normal;font-weight:normal;line-height:125%;letter-spacing:0px;word-spacing:0px;fill:#000000;fill-opacity:1;stroke:none;font-family:Sans"
       x="3484.6204"
       y="-8489.0508"
       id="text3061"
       sodipodi:linespacing="125%"
       transform="scale(1.2859532,0.77763327)"><tspan
         sodipodi:role="line"
         id="tspan3063"
         x="3484.6204"
         y="-8489.0508"
         style="font-size:353.96792603px;fill:#ffffff">CLAIM NAME</tspan></text>
    <text
       xml:space="preserve"
       style="font-size:98.32441711px;font-style:normal;font-weight:normal;line-height:125%;letter-spacing:0px;word-spacing:0px;fill:#000000;fill-opacity:1;stroke:none;font-family:Sans"
       x="3564.0779"
       y="-6979.3462"
       id="text3065"
       sodipodi:linespacing="125%"
       transform="scale(1.2859532,0.77763327)"><tspan
         sodipodi:role="line"
         id="tspan3067"
         x="3564.0779"
         y="-6979.3462"
         style="font-size:353.96792603px;fill:#ffffff">Start Date:</tspan></text>
    <text
       xml:space="preserve"
       style="font-size:98.32441711px;font-style:normal;font-weight:normal;line-height:125%;letter-spacing:0px;word-spacing:0px;fill:#000000;fill-opacity:1;stroke:none;font-family:Sans"
       x="6980.7793"
       y="-7019.0752"
       id="text3069"
       sodipodi:linespacing="125%"
       transform="scale(1.2859532,0.77763327)"><tspan
         sodipodi:role="line"
         id="tspan3071"
         x="6980.7793"
         y="-7019.0752"
         style="font-size:353.96792603px;fill:#ffffff">End Date:</tspan></text>
    <rect
       style="fill:#ffffff;fill-opacity:1"
       id="rect3073"
       width="2912.114"
       height="679.68219"
       x="4583.2378"
       y="-5365.582" />
    <rect
       style="fill:#ffffff;fill-opacity:1"
       id="rect3075"
       width="3269.7422"
       height="710.57678"
       x="8925.8652"
       y="-5396.4771" />
    <rect
       style="fill:#ffffff;fill-opacity:1"
       id="rect3077"
       width="221.39384"
       height="21.351212"
       x="12150.002"
       y="-5682.0508" />
    <text
       xml:space="preserve"
       style="font-size:98.32441711px;font-style:normal;font-weight:normal;line-height:125%;letter-spacing:0px;word-spacing:0px;fill:#000000;fill-opacity:1;stroke:none;font-family:Sans"
       x="3564.0786"
       y="-5509.3706"
       id="text3079"
       sodipodi:linespacing="125%"
       transform="scale(1.2859532,0.77763327)"><tspan
         sodipodi:role="line"
         id="tspan3081"
         x="3564.0786"
         y="-5509.3706"
         style="font-size:353.96792603px;fill:#ffffff">DEST1</tspan></text>
    <rect
       style="fill:#ffffff;fill-opacity:1"
       id="rect3083"
       width="7561.2788"
       height="494.3143"
       x="4634.3276"
       y="-4191.5854" />
    <text
       xml:space="preserve"
       style="font-size:98.32441711px;font-style:normal;font-weight:normal;line-height:125%;letter-spacing:0px;word-spacing:0px;fill:#000000;fill-opacity:1;stroke:none;font-family:Sans"
       x="3603.8066"
       y="-4317.499"
       id="text3085"
       sodipodi:linespacing="125%"
       transform="scale(1.2859532,0.77763327)"><tspan
         sodipodi:role="line"
         id="tspan3087"
         x="3603.8066"
         y="-4317.499"
         style="font-size:491.62210083px;font-weight:normal;fill:#ffffff;-inkscape-font-specification:Sans">Reason:</tspan></text>
    <rect
       style="fill:#ffffff;fill-opacity:1"
       id="rect3089"
       width="7510.189"
       height="556.10352"
       x="4583.2378"
       y="-3233.8518" />
    <path
       style="fill:#008000;stroke:#000000;stroke-width:0.90707082px;stroke-linecap:butt;stroke-linejoin:miter;stroke-opacity:1"
       d="m -9158.8566,-5423.7062 -244.4825,-205.7143 -188.0634,137.1429 -75.2254,388.5714 225.6761,502.8571 413.7396,365.7143 c 159.5547,70.1647 316.4268,146.4294 470.1586,228.5715 82.4193,44.0383 163.9362,89.7654 244.4824,137.1428 156.7095,2.1668 313.4491,2.1668 470.1586,0 225.798,-3.1221 451.5338,-10.7432 677.0282,-22.8571 l 564.19,22.8571 263.2888,-548.5714 -225.6755,-800 -150.4506,-800 -526.5776,-891.4286 -658.2223,-480 -37.6127,388.5715 -188.0635,-228.5715 -206.8697,137.1429 -18.8064,228.5714 394.9332,777.1429 -451.3522,-891.4286 -300.9015,45.7143 -37.6127,91.4286 -94.0317,91.4285 376.1269,594.2857 -902.7045,-1257.1428 -564.19,-160 -507.7706,205.7143 37.612,297.1428 338.514,91.4286 470.1585,274.2857 300.9015,502.8572 169.2571,502.857 -37.6127,274.2858"
       id="path3095"
       inkscape:path-effect="#path-effect3097"
       inkscape:original-d="m -9158.8566,-5423.7062 -244.4825,-205.7143 -188.0634,137.1429 -75.2254,388.5714 225.6761,502.8571 413.7396,365.7143 470.1586,228.5715 244.4824,137.1428 470.1586,0 677.0282,-22.8571 564.19,22.8571 263.2888,-548.5714 -225.6755,-800 -150.4506,-800 -526.5776,-891.4286 -658.2223,-480 -37.6127,388.5715 -188.0635,-228.5715 -206.8697,137.1429 -18.8064,228.5714 394.9332,777.1429 -451.3522,-891.4286 -300.9015,45.7143 -37.6127,91.4286 -94.0317,91.4285 376.1269,594.2857 -902.7045,-1257.1428 -564.19,-160 -507.7706,205.7143 37.612,297.1428 338.514,91.4286 470.1585,274.2857 300.9015,502.8572 169.2571,502.857 z"
       inkscape:connector-curvature="0" />
    <path
       style="fill:#000000;fill-opacity:1"
       id="path3099"
       d="m -4401.3997,-5133.3341 c 92.7896,1.8282 185.6156,1.3054 278.42,1.1672 94.0097,0.2003 188.0176,0.1025 282.0279,-0.2808 85.6531,-0.1071 171.304,0.2032 256.9579,-0.041 88.2218,0.3151 176.4441,-0.01 264.6657,0.184 77.2064,-5.2014 157.1485,9.4624 233.1141,-6.9922 54.3875,-19.2945 114.4657,-12.1393 168.2265,-30.9882 53.6357,-18.8156 110.5041,-22.6384 166.786,-25.5848 63.647,-2.4304 127.3569,-2.1693 191.0387,-2.1298 64.5419,-2.5025 127.8909,-18.7392 192.4502,-25.4865 72.7339,-5.6401 145.8021,-5.8594 218.7225,-6.4305 65.5521,-4.7278 133.5748,8.7706 197.7625,-6.8239 55.3807,-15.9559 112.8086,-20.5014 170.0722,-23.5085 63.5694,-2.504 127.2041,-2.3368 190.811,-2.3483 64.7071,0.064 129.414,0.1639 194.1211,0.2155 64.6701,0.044 129.3403,0.048 194.0105,0.052 64.6501,0 129.3003,4e-4 193.9504,-1e-4 64.64948,-6e-4 129.29898,-8e-4 193.94838,-9e-4 64.6498,0 129.2995,0 193.9493,0 64.6497,0 129.2995,0 193.9493,0 54.2871,-16.2316 109.9219,-24.2287 166.2434,-28.6307 60.9063,-7.5824 124.0172,4.4854 183.598899,-10.6629 144.369,-102.5593 -1.3227,1.9435 -373.885299,209.5175 -5.9151,3.2956 11.2545,-7.8026 15.643,-12.9593 13.9516,-16.3935 16.3529,-31.4899 14.0908,-51.652 -15.8324,-54.3063 -48.4186,-101.1958 -79.5681,-147.6897 -28.8303,-51.2126 -66.0228,-96.223 -103.524,-141.0386 -34.5623,-36.4772 -72.6854,-69.4464 -106.5035,-106.5802 -37.7333,-28.0918 -76.468,-53.0698 -110.1273,-86.5191 -42.8988,-34.3451 -81.5624,-73.4367 -122.5636,-109.9378 -42.9473,-25.4978 -76.59838,-63.7316 -121.22988,-86.2644 -41.3687,-24.4501 -75.8293,-57.4444 -113.4066,-86.8617 -33.9852,-31.1836 -64.3079,-66.2958 -99.0287,-96.6535 -54.6477,-31.1797 21.94,11.1393 -37.2997,-16.9031 -211.7938,-100.2576 292.3786,-244.8708 372.58358,-294.8107 47.2406,31.4815 96.0372,59.4736 145.425,87.5097 62.7968,47.4304 136.8257,74.0802 204.9249,112.187 66.019,36.9525 136.0828,67.2259 200.1069,107.547 47.3871,31.2484 93.4814,62.7992 145.3044,86.7329 49.6745,29.755 97.9712,61.2917 147.045399,91.8908 49.2857,28.8134 93.447,64.39 139.3669,97.9649 45.9496,20.0837 73.804101,62.9076 108.415801,96.907 27.1088,34.0279 63.5919,62.1488 103.6782,79.2995 50.4422,12.1437 90.6016,49.156 118.9479,91.1876 28.0259,50.7155 31.4259,103.9466 11.631,157.6997 -17.746,47.3935 -53.9117,77.867 -92.0297,108.2387 -39.4403,24.7141 -71.0352,59.3894 -110.7355,83.5645 -185.290101,139.2 -400.0962,230.6133 -600.5656,344.3313 -67.1596,26.302 -128.2129,64.6224 -193.1773,95.4052 -181.6812,59.0202 -469.67138,242.3157 236.7865,-160.0005 -266.6126,277.2443 -304.3522,192.9799 -494.0724,272.4152 -26.1399,10.9447 -48.2668,24.2243 -75.7731,32.8019 -9.2237,1.9657 -18.7597,2.8106 -27.6713,5.897 -7.9686,2.7599 -15.0254,7.6617 -22.5381,11.4925 -7.88008,3.1045 -15.60808,6.6268 -23.64018,9.3133 -25.9288,8.6725 -49.4976,10.8491 -74.1008,23.2828 -7.7544,3.0194 -16.0495,4.9097 -23.2632,9.0582 -54.6258,31.4151 18.9765,-0.8127 -38.6873,26.623 -23.5537,11.2066 -46.2271,14.0774 -68.859,27.5713 -22.015,14.9032 -49.5703,14.0732 -73.5872,22.3443 -130.1411,44.8189 -580.2415,323.9501 347.58098,-202.1017 -149.06548,87.0175 -328.66568,191.9719 -454.22528,258.0666 -133.0894,70.0585 517.77698,-305.9758 391.6926,-223.9775 -139.1965,90.5256 -288.4794,164.5471 -431.0873,249.5976 -5.9576,3.5531 1120.63918,-646.8385 -46.3816,26.8581 -147.5831,61.2128 -387.7079,209.4118 338.7489,-199.1676 14.6999,-8.2676 -24.9902,23.0557 -39.5752,31.5244 -144.0843,83.6621 -289.3771,165.2255 -434.0656,247.8382 -140.4862,85.325 -334.5686,187.1273 349.0466,-200.5669 7.3607,-4.1745 -14.0218,9.4965 -20.718,14.6701 -14.0862,10.8833 -27.4675,22.6543 -41.4535,33.6661 -8.1725,-0.4408 -31.1276,38.7943 -42.4876,33.893 -3.0521,-1.3168 -9.5857,-15.0783 -4.0213,-18.8001 3.7338,-2.4975 8.9539,-0.7348 13.4309,-1.1022 49.7391,-23.6526 104.2779,-34.2843 155.4689,-54.1598 78.2804,-16.8077 149.7356,-52.2511 225.11158,-78.0165 74.2291,-30.3221 154.6395,-42.6527 225.8461,-80.0775 54.7185,-29.7412 117.4846,-42.96 171.6314,-72.8649 8.5484,-3.8021 33.7425,-16.0926 25.6451,-11.4062 -122.1017,70.6668 -490.54658,278.9347 -368.1731,208.7396 144.4236,-82.8432 288.0899,-167.0409 433.7085,-247.7651 33.5959,-9.0565 18.131,-2.3811 46.6472,-19.4304 316.0422,-165.5594 -519.6046,311.7798 -272.4699,159.1201 40.6318,-31.0211 80.8366,-63.0095 116.9316,-99.3046 36.7237,-41.1768 80.0158,-74.5447 122.6189,-109.1664 35.7257,-33.6183 80.9054,-55.2971 115.314,-89.9818 31.7037,-32.9823 63.2465,-66.3699 93.3028,-100.9183 30.1043,-27.8258 50.9555,-62.9402 78.3377,-93.3421 0,0 444.1925,-180.9997 444.1925,-180.9997 l 0,0 c -35.102,24.4286 -56.3574,55.4237 -78.3848,91.2458 -35.6526,28.6047 -63.839901,66.6483 -93.275101,101.2283 -59.2764,53.5691 27.0969,-26.5917 -32.2311,36.119 -23.6135,24.9598 -62.6195,28.7059 -81.4731,59.9353 -44.8343,29.4702 -90.053099,62.7278 -124.624499,104.0249 -39.1914,33.3976 -72.3701,73.9414 -115.1586,103.078 -25.8553,24.62 -11.8121,14.1348 -42.7913,32.0474 -167.6314,96.9272 -330.0631,204.0997 -505.6115,286.2288 -15.6569,5.9204 -60.5306,28.4052 -46.0818,19.9541 829.626199,-485.2541 158.0835,-80.9767 -91.6973,48.5854 -58.07048,21.3832 -114.49568,46.7779 -171.14518,71.6392 -75.2649,27.0736 -152.6461,47.6976 -227.1267,77.0347 -74.5882,28.5937 -149.4928,54.9599 -226.039,77.8867 -55.6815,17.0881 -115.2051,46.1493 -174.1127,34.7548 -58.9926,-24.7215 -73.4595,-70.5766 -15.158,-106.4401 44.5313,-47.5123 -7.5255,5.2669 40.5797,-35.3327 145.5275,-122.8216 322.3788,-205.3114 491.6538,-293.3551 -129.4354,75.2853 -259.0458,150.2707 -388.3063,225.8561 -14.2761,8.348 27.2767,-18.7404 41.4274,-27.2992 142.5991,-86.2483 285.8412,-171.4373 429.5089,-255.8937 16.0747,-9.4497 35.1878,-13.0772 50.1756,-24.7314 -994.001,576.7887 5.7402,-3.0359 46.4965,-27.9731 128.17268,-78.4241 -522.0351,297.8051 -390.0477,225.9866 1453.485979,-790.8869 -281.2874,116.7873 62.1391,-35.1859 206.8467,-117.6039 349.5853,-217.1023 549.91808,-291.5761 46.2822,-16.6528 85.9313,-45.4879 133.0294,-60.1788 50.3882,-13.3568 98.1191,-33.8673 147.7367,-49.6292 168.2331,-74.1905 462.0074,-221.267 -254.8702,162.101 145.8789,-83.2698 290.9404,-167.9883 437.6368,-249.8095 45.4323,-25.3403 102.1577,-31.8852 146.2811,-61.0371 62.591,-33.6134 127.4275,-62.3594 190.304699,-95.35 38.0975,-20.4495 76.1122,-41.0495 113.987,-61.9094 11.1586,-6.1456 44.417001,-24.9687 33.4104,-18.555 -354.991599,206.8589 -515.865499,296.3167 -364.259699,211.8659 35.45,-29.8496 79.4633,-48.5411 110.2005,-85.0793 39.6231,-22.0206 74.737799,-46.9459 102.702699,-82.8048 21.0667,-42.2294 35.9537,-68.1248 10.8887,-114.7487 -26.3641,-36.7274 -64.675599,-55.8647 -106.340899,-71.1935 -41.9648,-24.5112 -81.6713,-54.0541 -112.1538,-92.2995 -32.0258,-33.9021 -61.9051,-69.2874 -104.1939,-91.1295 -43.903,-34.3193 -89.3899,-66.0661 -137.012,-95.0782 -46.8726,-30.9447 -95.0905,-59.6883 -143.897,-87.4871 -51.3721,-26.8106 -98.4897,-59.0735 -146.8408,-90.7658 -64.5946,-37.6901 -132.168,-70.1629 -197.6542,-106.2782 -69.49598,-36.2412 -141.37048,-67.8647 -206.85378,-111.481 -46.1713,-24.8955 -89.0977,-58.8142 -139.6738,-73.4451 299.7295,-204.8987 283.7987,-356.3673 468.67858,-216.6155 32.6064,31.3056 63.9024,63.9408 97.4976,94.2235 34.6574,29.2787 69.9204,57.6593 109.157,80.7428 44.105,28.7837 83.5583,64.1201 126.0322,95.2495 40.3013,37.765 81.6054,74.2729 123.442,110.3435 35.6774,31.8955 77.7303,55.3524 111.9946,88.8364 35.3938,36.7028 72.643,71.5723 106.9729,109.3225 38.6763,46.0108 75.6761,93.2723 105.741499,145.5485 34.6522,51.0756 68.5113,103.5934 89.2106,162.0882 66.6464,217.9964 -302.672599,343.9262 -462.191099,370.2159 -61.5323,2.7555 -123.3034,1.8266 -184.5807,9.056 -56.4228,7.3549 -111.7243,22.8962 -168.722,24.3025 -64.6497,0 -129.2995,0 -193.94928,0 -64.6497,0 -129.2994,0 -193.9491,1e-4 -64.6495,2e-4 -129.2989,5e-4 -193.9483,0 -64.6509,5e-4 -129.3019,0 -193.9529,0 -64.6764,-0.01 -129.3528,-0.023 -194.0292,-0.086 -64.6813,-0.066 -129.3628,-0.2098 -194.0441,-0.07 -63.0659,0.3026 -126.2147,0.4914 -189.1327,5.3326 -56.7796,5.408 -112.4169,16.2952 -168.5677,25.8847 -66.6653,2.2754 -133.3969,0.1444 -200.0893,1.2934 -72.1514,0.9004 -144.5005,1.862 -216.172,11.1107 -65.0762,8.9967 -129.763,24.0412 -195.8772,20.9365 -63.1079,0.2368 -126.3125,0.2688 -189.2634,5.2845 -55.3662,5.6423 -109.3728,16.5462 -162.9217,31.7611 -57.1419,7.2713 -113.7058,17.1783 -170.5333,26.388 -78.1132,2.9031 -156.3304,-0.1528 -234.4816,0.7411 -88.3905,0.1928 -176.7816,-0.1302 -265.1722,0.184 -85.6162,-0.2461 -171.2295,0.068 -256.8449,-0.041 -93.7526,-0.3865 -187.5029,-0.4799 -281.255,-0.2808 -93.8757,-0.1403 -187.7713,-0.6352 -281.633,1.1673 0,0 387.9841,-281.887 387.9841,-281.887 z"
       inkscape:connector-curvature="0" />
    <rect
       y="1767.037"
       x="22434.557"
       height="6967.5137"
       width="6298.8896"
       id="rect3101"
       style="fill:#000000;fill-opacity:1" />
    <rect
       y="2013.6749"
       x="22769.279"
       height="6392.0259"
       width="5599.0132"
       id="rect3103"
       style="fill:#008080;fill-opacity:1" />
    <rect
       y="2042.3986"
       x="22831.914"
       height="1060.2896"
       width="5474.6138"
       id="rect3105"
       style="fill:#000080;fill-opacity:1" />
    <text
       transform="scale(1.1174984,0.89485586)"
       sodipodi:linespacing="125%"
       id="text3107"
       y="2956.5083"
       x="21849.473"
       style="font-size:79.75099182px;font-style:normal;font-weight:normal;line-height:125%;letter-spacing:0px;word-spacing:0px;fill:#000000;fill-opacity:1;stroke:none;font-family:Sans"
       xml:space="preserve"><tspan
         style="font-size:500px;fill:#ffffff"
         y="2956.5083"
         x="21849.473"
         id="tspan3109"
         sodipodi:role="line">TAGS</tspan></text>
    <rect
       y="3225.0293"
       x="22908.305"
       height="5015.9858"
       width="5347.2969"
       id="rect3117"
       style="fill:#ffffff;fill-opacity:1" />
    <rect
       y="2083.179"
       x="27007.898"
       height="937.94855"
       width="1222.2394"
       id="rect3119"
       style="fill:#000000;fill-opacity:1" />
    <path
       transform="matrix(2.2280405,0,0,1.7841412,27644.484,4650.6768)"
       d="m 22.857141,-1307.6378 a 51.42857,51.42857 0 1 1 -102.857139,0 51.42857,51.42857 0 1 1 102.857139,0 z"
       sodipodi:ry="51.42857"
       sodipodi:rx="51.42857"
       sodipodi:cy="-1307.6378"
       sodipodi:cx="-28.571428"
       id="path3121"
       style="fill:#ffffff;fill-opacity:1"
       sodipodi:type="arc" />
    <path
       transform="matrix(2.2280405,0,0,-1.7841415,27644.484,290.50808)"
       d="m 22.857141,-1307.6378 a 51.42857,51.42857 0 1 1 -102.857139,0 51.42857,51.42857 0 1 1 102.857139,0 z"
       sodipodi:ry="51.42857"
       sodipodi:rx="51.42857"
       sodipodi:cy="-1307.6378"
       sodipodi:cx="-28.571428"
       id="path3123"
       style="fill:#ffffff;fill-opacity:1"
       sodipodi:type="arc" />
    <path
       sodipodi:type="arc"
       style="fill:#ffffff;fill-opacity:1"
       id="path3125"
       sodipodi:cx="-28.571428"
       sodipodi:cy="-1307.6378"
       sodipodi:rx="51.42857"
       sodipodi:ry="51.42857"
       d="m 22.857141,-1307.6378 a 51.42857,51.42857 0 1 1 -102.857139,0 51.42857,51.42857 0 1 1 102.857139,0 z"
       transform="matrix(2.2280405,0,0,-1.7841415,27657.216,524.99548)" />
    <rect
       style="fill:#000000;fill-opacity:1"
       id="rect3135"
       width="129.29953"
       height="5010.3564"
       x="24058.898"
       y="3254.6545" />
    <rect
       style="fill:#000000;fill-opacity:1"
       id="rect3137"
       width="5462.9053"
       height="129.29953"
       x="22798.229"
       y="4095.1013" />
    <rect
       y="5161.8223"
       x="22830.555"
       height="129.29953"
       width="5430.5801"
       id="rect3139"
       style="fill:#000000;fill-opacity:1" />
    <rect
       style="fill:#000000;fill-opacity:1"
       id="rect3141"
       width="5430.5801"
       height="129.29953"
       x="22830.555"
       y="6228.5439" />
    <rect
       y="7230.6152"
       x="22830.555"
       height="129.29953"
       width="5430.5801"
       id="rect3143"
       style="fill:#000000;fill-opacity:1" />
    <path
       style="fill:#000000;stroke:#000000;stroke-width:1px;stroke-linecap:butt;stroke-linejoin:miter;stroke-opacity:1"
       d="m 23056.83,3739.5278 323.248,226.2741 387.899,-549.5229 -193.949,-96.9747 -226.275,452.5484 -290.923,-32.3249"
       id="path3149"
       inkscape:path-effect="#path-effect3151"
       inkscape:original-d="m 23056.83,3739.5278 c 323.248,258.599 323.248,226.2741 323.248,226.2741 l 387.899,-549.5229 -193.949,-96.9747 -226.275,452.5484 z"
       inkscape:connector-curvature="0" />
    <text
       xml:space="preserve"
       style="font-size:60.15919876px;font-style:normal;font-weight:normal;line-height:125%;letter-spacing:0px;word-spacing:0px;fill:#000000;fill-opacity:1;stroke:none;font-family:Sans"
       x="3964.2437"
       y="-2373.8179"
       id="text3155"
       sodipodi:linespacing="125%"
       transform="scale(1.1384829,0.87836189)"><tspan
         sodipodi:role="line"
         id="tspan3157"
         x="3964.2437"
         y="-2373.8179"
         style="font-size:500.00000206px">Tags</tspan></text>
    <rect
       y="2298.9702"
       x="-13533.287"
       height="6967.5137"
       width="6298.8896"
       id="rect3159"
       style="fill:#000000;fill-opacity:1" />
    <rect
       y="2591.3228"
       x="-13152.85"
       height="6392.0259"
       width="5599.0132"
       id="rect3161"
       style="fill:#008080;fill-opacity:1" />
    <rect
       y="2620.0464"
       x="-13090.216"
       height="1060.2896"
       width="5474.6138"
       id="rect3163"
       style="fill:#000080;fill-opacity:1" />
    <text
       transform="scale(1.1174984,0.89485586)"
       sodipodi:linespacing="125%"
       id="text3165"
       y="3565.9058"
       x="-11394.853"
       style="font-size:79.75099182px;font-style:normal;font-weight:normal;line-height:125%;letter-spacing:0px;word-spacing:0px;fill:#000000;fill-opacity:1;stroke:none;font-family:Sans"
       xml:space="preserve"><tspan
         style="font-size:319.00396729px;fill:#ffffff"
         y="3565.9058"
         x="-11394.853"
         id="tspan3167"
         sodipodi:role="line">CLAIMS</tspan></text>
    <rect
       y="3802.6772"
       x="-13013.825"
       height="5015.9858"
       width="5347.2969"
       id="rect3175"
       style="fill:#ffffff;fill-opacity:1" />
    <rect
       y="2660.8267"
       x="-8914.2305"
       height="937.94855"
       width="1222.2394"
       id="rect3177"
       style="fill:#000000;fill-opacity:1" />
    <path
       transform="matrix(2.2280405,0,0,1.7841412,-8277.6482,5228.3243)"
       d="m 22.857141,-1307.6378 a 51.42857,51.42857 0 1 1 -102.857139,0 51.42857,51.42857 0 1 1 102.857139,0 z"
       sodipodi:ry="51.42857"
       sodipodi:rx="51.42857"
       sodipodi:cy="-1307.6378"
       sodipodi:cx="-28.571428"
       id="path3179"
       style="fill:#ffffff;fill-opacity:1"
       sodipodi:type="arc" />
    <path
       transform="matrix(2.2280405,0,0,-1.7841415,-8277.6482,868.1556)"
       d="m 22.857141,-1307.6378 a 51.42857,51.42857 0 1 1 -102.857139,0 51.42857,51.42857 0 1 1 102.857139,0 z"
       sodipodi:ry="51.42857"
       sodipodi:rx="51.42857"
       sodipodi:cy="-1307.6378"
       sodipodi:cx="-28.571428"
       id="path3181"
       style="fill:#ffffff;fill-opacity:1"
       sodipodi:type="arc" />
    <path
       sodipodi:type="arc"
       style="fill:#ffffff;fill-opacity:1"
       id="path3183"
       sodipodi:cx="-28.571428"
       sodipodi:cy="-1307.6378"
       sodipodi:rx="51.42857"
       sodipodi:ry="51.42857"
       d="m 22.857141,-1307.6378 a 51.42857,51.42857 0 1 1 -102.857139,0 51.42857,51.42857 0 1 1 102.857139,0 z"
       transform="matrix(2.2280405,0,0,-1.7841415,-8264.9165,1102.6429)" />
    <path
       inkscape:connector-curvature="0"
       inkscape:original-d="m -7278.4674,4971.5162 -244.4825,-205.7143 -188.0634,137.1429 -75.2254,388.5714 225.6761,502.8571 413.7396,365.7143 470.1586,228.5715 244.4824,137.1428 470.1586,0 677.0282,-22.8571 564.19,22.8571 263.2888,-548.5714 -225.6755,-800 -150.4506,-800 -526.5776,-891.4286 -658.2223,-480 -37.6127,388.5715 -188.0635,-228.5715 -206.8697,137.1429 -18.8064,228.5714 394.9332,777.1429 -451.3522,-891.4286 -300.9015,45.7143 -37.6127,91.4286 -94.0317,91.4285 376.1269,594.2857 -902.7045,-1257.1428 -564.19,-160 -507.7709,205.7143 37.612,297.1428 338.514,91.4286 470.1588,274.2857 300.9015,502.8572 169.2571,502.857 z"
       inkscape:path-effect="#path-effect3187"
       id="path3185"
       d="m -7278.4674,4971.5162 -244.4825,-205.7143 -188.0634,137.1429 -75.2254,388.5714 225.6761,502.8571 413.7396,365.7143 c 159.5547,70.1647 316.4268,146.4294 470.1586,228.5715 82.4193,44.0383 163.9362,89.7654 244.4824,137.1428 156.7095,2.1668 313.4491,2.1668 470.1586,0 225.798,-3.1221 451.5338,-10.7432 677.0282,-22.8571 l 564.19,22.8571 263.2888,-548.5714 -225.6755,-800 -150.4506,-800 -526.5776,-891.4286 -658.2223,-480 -37.6127,388.5715 -188.0635,-228.5715 -206.8697,137.1429 -18.8064,228.5714 394.9332,777.1429 -451.3522,-891.4286 -300.9015,45.7143 -37.6127,91.4286 -94.0317,91.4285 376.1269,594.2857 -902.7045,-1257.1428 -564.19,-160 -507.7709,205.7143 37.612,297.1428 338.514,91.4286 470.1588,274.2857 300.9015,502.8572 169.2571,502.857 -37.6127,274.2858"
       style="fill:#008000;stroke:#000000;stroke-width:0.90707082px;stroke-linecap:butt;stroke-linejoin:miter;stroke-opacity:1" />
    <rect
       y="6150.2227"
       x="3719.2705"
       height="6967.5137"
       width="6298.8896"
       id="rect3159-7"
       style="fill:#000000;fill-opacity:1" />
    <rect
       y="6396.8608"
       x="4053.9941"
       height="6392.0259"
       width="5599.0132"
       id="rect3161-4"
       style="fill:#008080;fill-opacity:1" />
    <rect
       y="6425.5845"
       x="4116.6279"
       height="1060.2896"
       width="5474.6138"
       id="rect3163-0"
       style="fill:#000080;fill-opacity:1" />
    <text
       transform="scale(1.1174984,0.89485586)"
       sodipodi:linespacing="125%"
       id="text3165-9"
       y="7818.5879"
       x="4002.7925"
       style="font-size:79.75099182px;font-style:normal;font-weight:normal;line-height:125%;letter-spacing:0px;word-spacing:0px;fill:#000000;fill-opacity:1;stroke:none;font-family:Sans"
       xml:space="preserve"><tspan
         style="font-size:319.00396729px;fill:#ffffff"
         y="7818.5879"
         x="4002.7925"
         id="tspan3167-4"
         sodipodi:role="line">CLAIMS</tspan></text>
    <rect
       y="6507.145"
       x="6408.3271"
       height="917.55835"
       width="1324.0927"
       id="rect3169-8"
       style="fill:#800000;fill-opacity:1" />
    <path
       inkscape:connector-curvature="0"
       d="m 7187.7467,6557.5004 c -0.392,52.9334 -11.429,105.2404 -18.347,157.7618 -5.401,42.486 -6.653,85.1943 -7.357,127.864 -0.435,40.6897 -0.29,81.3816 -0.232,122.0723 0.06,40.7472 0.09,81.4943 0.102,122.2415 -1.922,17.8668 1.838,35.1733 5.884,52.6088 0,0 -333.127,142.5493 -333.127,142.5493 l 0,0 c -5,-19.1802 -11.074,-38.3035 -8.633,-58.1086 -0.02,-40.7377 -0.03,-81.4754 -0.1,-122.2131 -0.06,-40.8105 -0.209,-81.6216 0.07,-122.4318 0.518,-43.5905 1.416,-87.2289 6.573,-130.6578 6.567,-51.3931 20.12,-102.6529 18.558,-154.3494 0,0 336.601,-137.337 336.601,-137.337 z"
       id="path3171-8"
       style="fill:#000000;fill-opacity:1" />
    <path
       inkscape:connector-curvature="0"
       d="m 6786.1677,6846.4332 c 70.788,1.2437 141.604,0.7509 212.403,0.5425 56.316,-0.1895 112.632,-0.2799 168.948,-0.3265 50.9569,-0.032 101.9137,-0.029 152.8707,-0.029 50.8443,9e-4 101.6887,0 152.533,0 48.3083,4.5911 92.7017,-4.1612 139.293,-11.8325 0,0 -301.0937,182.6283 -301.0937,182.6283 l 0,0 c -47.4145,7.5394 -94.9171,7.6047 -143.173,6.635 -50.848,7e-4 -101.696,9e-4 -152.544,0 -50.924,4e-4 -101.847,0 -152.771,-0.029 -55.942,-0.046 -111.884,-0.1356 -167.825,-0.3265 -71.421,-0.2123 -142.858,-0.6831 -214.268,0.5426 0,0 305.627,-177.8112 305.627,-177.8112 z"
       id="path3173-2"
       style="fill:#000000;fill-opacity:1" />
    <rect
       y="7608.2148"
       x="4193.0186"
       height="5015.9858"
       width="5347.2969"
       id="rect3175-4"
       style="fill:#ffffff;fill-opacity:1" />
    <rect
       y="6466.3647"
       x="8292.6133"
       height="937.94855"
       width="1222.2394"
       id="rect3177-5"
       style="fill:#000000;fill-opacity:1" />
    <path
       transform="matrix(2.2280405,0,0,1.7841412,8929.1955,9033.8621)"
       d="m 22.857141,-1307.6378 a 51.42857,51.42857 0 1 1 -102.857139,0 51.42857,51.42857 0 1 1 102.857139,0 z"
       sodipodi:ry="51.42857"
       sodipodi:rx="51.42857"
       sodipodi:cy="-1307.6378"
       sodipodi:cx="-28.571428"
       id="path3179-5"
       style="fill:#ffffff;fill-opacity:1"
       sodipodi:type="arc" />
    <path
       transform="matrix(2.2280405,0,0,-1.7841415,8929.1955,4673.6934)"
       d="m 22.857141,-1307.6378 a 51.42857,51.42857 0 1 1 -102.857139,0 51.42857,51.42857 0 1 1 102.857139,0 z"
       sodipodi:ry="51.42857"
       sodipodi:rx="51.42857"
       sodipodi:cy="-1307.6378"
       sodipodi:cx="-28.571428"
       id="path3181-1"
       style="fill:#ffffff;fill-opacity:1"
       sodipodi:type="arc" />
    <path
       sodipodi:type="arc"
       style="fill:#ffffff;fill-opacity:1"
       id="path3183-7"
       sodipodi:cx="-28.571428"
       sodipodi:cy="-1307.6378"
       sodipodi:rx="51.42857"
       sodipodi:ry="51.42857"
       d="m 22.857141,-1307.6378 a 51.42857,51.42857 0 1 1 -102.857139,0 51.42857,51.42857 0 1 1 102.857139,0 z"
       transform="matrix(2.2280405,0,0,-1.7841415,8941.9272,4908.1808)" />
    <rect
       style="fill:#cccccc;fill-opacity:1"
       id="rect3249"
       width="4363.8589"
       height="2230.4167"
       x="5212.1494"
       y="7597.5117" />
    <rect
       style="fill:#000000;fill-opacity:1"
       id="rect3258"
       width="4396.1836"
       height="64.649765"
       x="5212.1494"
       y="8534.9326" />
    <text
       xml:space="preserve"
       style="font-size:40px;font-style:normal;font-weight:normal;line-height:125%;letter-spacing:0px;word-spacing:0px;fill:#000000;fill-opacity:1;stroke:none;font-family:Sans"
       x="6472.8198"
       y="8147.0342"
       id="text3260"
       sodipodi:linespacing="125%"><tspan
         sodipodi:role="line"
         id="tspan3262"
         x="6472.8198"
         y="8147.0342"
         style="font-size:500px">Settings</tspan></text>
    <text
       xml:space="preserve"
       style="font-size:40px;font-style:normal;font-weight:normal;line-height:125%;letter-spacing:0px;word-spacing:0px;fill:#000000;fill-opacity:1;stroke:none;font-family:Sans"
       x="6084.9209"
       y="9375.3799"
       id="text3264"
       sodipodi:linespacing="125%"><tspan
         sodipodi:role="line"
         id="tspan3266"
         x="6084.9209"
         y="9375.3799"
         style="font-size:500px">EDIT TAGS</tspan></text>
    <path
       inkscape:connector-curvature="0"
       inkscape:original-d="m 8279.8079,11460.019 -244.483,-205.714 -188.063,137.143 -75.226,388.571 225.676,502.857 413.74,365.715 470.159,228.571 244.482,137.143 470.159,0 677.0281,-22.857 564.19,22.857 263.29,-548.572 -225.676,-800 -150.452,-800 -526.577,-891.4281 -658.2221,-480 -37.613,388.5715 -188.064,-228.5715 -206.869,137.1429 -18.807,228.5712 394.933,777.143 -451.352,-891.4285 -300.901,45.7143 -37.613,91.4282 -94.032,91.429 376.127,594.286 -902.704,-1257.1432 -564.19,-160.0001 -507.771,205.7144 37.612,297.1428 338.514,91.4286 470.159,274.2855 300.901,502.857 169.257,502.857 z"
       inkscape:path-effect="#path-effect3187-1"
       id="path3185-1"
       d="m 8279.8079,11460.019 -244.483,-205.714 -188.063,137.143 -75.226,388.571 225.676,502.857 413.74,365.715 c 159.5549,70.164 316.4272,146.429 470.159,228.571 82.4192,44.038 163.936,89.765 244.482,137.143 156.7097,2.167 313.4493,2.167 470.159,0 225.798,-3.122 451.5341,-10.743 677.0281,-22.857 l 564.19,22.857 263.29,-548.572 -225.676,-800 -150.452,-800 -526.577,-891.4281 -658.2221,-480 -37.613,388.5715 -188.064,-228.5715 -206.869,137.1429 -18.807,228.5712 394.933,777.143 -451.352,-891.4285 -300.901,45.7143 -37.613,91.4282 -94.032,91.429 376.127,594.286 -902.704,-1257.1432 -564.19,-160.0001 -507.771,205.7144 37.612,297.1428 338.514,91.4286 470.159,274.2855 300.901,502.857 169.257,502.857 -37.612,274.286"
       style="fill:#008000;stroke:#000000;stroke-width:0.90707082px;stroke-linecap:butt;stroke-linejoin:miter;stroke-opacity:1" />
    <path
       style="fill:#000000;fill-opacity:1"
       id="path3268"
       d="m -3475.4883,6577.9211 c 82.8395,51.5977 170.7582,94.3936 259.0045,135.8128 77.9403,29.1102 145.5099,77.1775 217.0676,118.4788 72.116,41.4166 150.853,69.3201 222.3858,111.5049 88.0596,47.913 171.7253,102.7163 257.765,154.0215 98.5354,51.5615 194.4714,107.4661 291.8016,161.2532 96.5541,52.3633 196.3803,98.2562 296.9377,142.3001 84.5383,36.5003 169.2456,72.6045 254.1158,108.3256 86.793,36.8409 173.6848,73.4467 260.6615,109.8519 66.3646,27.7379 132.6584,55.6448 198.9229,83.6207 59.5955,25.1788 119.1675,50.4129 178.7418,75.6414 59.42971,25.1673 118.85938,50.3345 178.28515,75.511 59.52459,25.2075 119.04918,50.4149 178.57377,75.6224 59.53284,25.2109 119.0657,50.4219 178.59854,75.6329 59.1211,20.7127 113.91017,57.5145 176.13488,67.3362 57.17775,6.7775 111.77826,25.025 165.62537,44.5584 59.55681,22.4919 118.129092,47.4775 176.74525,72.2877 55.960014,19.4508 109.23123,63.0596 170.23605,49.8024 -149.912693,17.4095 -299.68954,36.03 -449.73783,52.2284 -6.72592,0.7261 13.40612,-2.749 19.45532,-5.7776 29.85894,-14.9495 41.87724,-44.8775 52.08964,-74.1805 21.18035,-66.3915 14.72855,-137.8623 10.73035,-206.5613 -6.2962,-105.4892 -28.82936,-208.9865 -47.46451,-312.7271 -14.12326,-97.9578 -44.74113,-191.7568 -71.47328,-286.6967 -19.15261,-72.3601 -43.84447,-144.0208 -69.05479,-214.6812 -71.1659,-253.0758 -100.80424,-110.3431 456.770817,-146.0352 47.915633,118.1227 95.052793,236.7167 148.440743,352.4901 63.5849,139.9667 132.80707,277.3315 205.331,412.8629 67.49153,113.9155 129.69386,230.2798 202.1773,341.1921 62.88866,98.3586 131.49287,192.926 190.42194,293.7532 32.43571,74.3092 108.90569,132.7833 126.67189,213.7544 2.65183,12.0858 1.57756,24.6963 2.3663,37.0444 -11.45014,77.2043 -79.86077,97.5817 -145.78177,115.7836 -256.34879,47.0312 -515.84095,72.2517 -775.864482,82.3781 -104.164852,7.0714 -208.242288,16.0147 -312.724398,20.3888 -101.47219,-11.5691 -202.8416,1.0189 -304.22241,4.9958 -88.34196,-3.8338 -174.48239,13.9195 -262.32903,0.6271 -12.47408,-0.2389 -24.95449,-1.1798 -37.42227,-0.7164 -71.17707,2.6449 -1.32768,4.8703 -71.69066,4.8355 -33.41991,-0.017 -64.39238,-5.9301 -97.79818,-3.6276 -28.8868,0.07 -56.7164,-3.1428 -85.6093,-2.1523 0,0 462.15568,-126.4651 462.15568,-126.4651 l 0,0 c 28.44396,1.332 56.87841,2.3204 85.36394,1.772 68.82072,4.388 137.42363,-1.7116 206.12622,4.4287 86.18244,2.9071 172.08776,-8.1758 258.36273,-6.4817 101.610391,-5.7004 202.92098,-8.4762 304.68424,-5.295 103.95558,-6.2832 207.77365,-14.3026 311.75326,-19.7547 116.56422,-5.6522 -8.0436,0.2783 111.7436,-5.0696 17.46466,-0.7797 69.70168,-4.8895 52.38799,-2.4686 -741.833608,103.7279 -483.95125,58.2409 -321.70283,41.1166 38.65896,-6.7617 120.26208,-19.6077 146.4765,-50.2034 C 490.10047,8675.2046 396.683,8590.9465 367.1849,8522.9029 306.3126,8423.8444 239.10542,8328.9409 176.91524,8230.7147 105.30095,8118.3031 44.283747,8000.0791 -22.973062,7885.0848 -95.029133,7748.2926 -163.78051,7609.7537 -229.15835,7469.6446 c -53.63723,-116.9102 -100.88256,-236.661 -156.80513,-352.544 489.35576,-92.5184 423.682895,-230.3366 490.13216,5.5852 23.38725,72.1858 49.89091,143.8287 66.92287,217.7265 26.39812,96.6432 56.12354,192.2661 71.4747,291.5097 17.32474,105.6425 39.21741,210.7778 49.09369,317.4845 5.55267,73.9335 13.78075,150.8686 -6.1351,223.1478 -62.0977,245.4688 -281.8473048,173.6679 -562.59316,192.8587 -60.44175,-14.7188 -115.42669,-45.1664 -173.22952,-67.5729 -58.22845,-24.3301 -116.48908,-48.7976 -176.35571,-68.8783 -54.34814,-17.1336 -109.76472,-28.7947 -165.21035,-41.633 -59.69015,-22.8476 -117.89657,-49.3662 -176.95102,-73.7903 -59.53278,-25.2111 -119.06558,-50.422 -178.59848,-75.633 -59.5256,-25.2077 -119.0511,-50.4155 -178.5766,-75.6235 -59.4343,-25.1693 -118.8686,-50.3385 -178.3031,-75.5078 -59.5323,-25.2108 -119.0648,-50.4215 -178.5777,-75.6783 -65.737,-27.9219 -131.446,-55.9094 -197.1011,-84.0234 -86.4531,-36.9562 -173.0143,-73.6565 -259.7049,-110.0525 -84.9929,-36.0427 -170.348,-71.2871 -254.4888,-109.2949 -99.8765,-45.7979 -198.829,-93.5916 -294.9747,-146.8775 -97.7701,-54.4297 -196.6667,-106.691 -293.5949,-162.5601 -85.6015,-51.9195 -170.9312,-104.0639 -259.0447,-151.6996 -74.7817,-37.4927 -152.2298,-69.7941 -224.245,-112.7054 -69.6903,-41.9071 -138.7931,-84.4541 -214.5468,-114.9564 -89.1091,-44.0313 -177.2362,-90.057 -263.5433,-139.3866 0,0 468.6288,-101.6235 468.6288,-101.6235 z"
       inkscape:connector-curvature="0" />
    <path
       style="fill:#000000;fill-opacity:1"
       id="path3270"
       d="m 12155.761,11021.134 c 99.118,-47.22 197.687,-93.416 301.255,-129.917 97.416,-36.015 197.325,-65.226 297.92,-91.004 131.157,-32.123 253.977,-88.797 380.584,-134.208 156.066,-60.433 313.49,-116.931 470.342,-175.272 170.957,-63.639 342.379,-125.352 510.833,-195.554 174.999,-74.819 347.131,-156.094 519.141,-237.483 212.896,-101.2132 426.408,-201.1336 639.075,-302.8248 201.531,-95.4333 401.882,-193.3309 602.557,-290.5445 131.655,-62.3943 262.664,-126.1337 393.776,-189.657 90.491,-43.2219 180.628,-87.189 271.373,-129.8756 85.091,-40.571 170.129,-81.2467 255.059,-122.1551 89.559,-42.3715 179.187,-84.591 268.473,-127.54 71.767,-34.6535 143.546,-69.2793 215.4,-103.75 66.988,-31.5074 133.701,-63.5954 200.466,-95.5682 61.103,-29.1838 122.092,-58.6077 183.382,-87.3984 75.145,-34.9379 149.61,-71.3109 224.512,-106.7637 68.921,-32.8485 137.719,-65.9556 206.571,-98.9507 65.209,-31.2275 130.606,-62.0591 195.83,-93.2567 62.049,-29.7238 124.112,-59.4196 186.191,-89.0798 34.051,-21.8387 82.147,-27.7097 109.422,-59.6292 5.268,-6.1642 16.503,-27.8814 11.839,-21.2486 -87.583,124.5659 -173.778,250.1003 -260.668,375.1506 1.497,-4.5222 5.763,-8.9761 4.492,-13.5671 -13.694,-49.4606 -181.089,-116.2139 -224.575,-135.6821 -127.054,-53.4996 -253.87,-109.5797 -384.785,-153.1748 -104.168,-37.9625 -207.807,-77.3514 -311.865,-115.613 -95.138,-32.005 -190.31,-64.4728 -286.615,-92.8935 -38.674,-7.8837 -77.076,-16.2901 -115.757,-23.9934 -8.994,-1.7911 -17.645,-5.7113 -26.803,-6.1979 -2.601,-0.1388 -7.895,6.5912 -6.439,4.4297 89.627,-133.0724 180.836,-265.0729 271.254,-397.6096 92.326,38.7547 190.245,57.892 287.532,79.205 134.813,27.2327 270.893,35.2621 407.528,46.3706 143.101,7.2043 285.468,-0.4295 427.775,-14.6614 150.944,-6.2916 298.112,-39.0447 446.419,-64.5922 117.843,-28.3716 236.562,-49.9511 356.528,-66.6514 67.951,-5.8364 131.464,6.1682 139.433,83.034 -15.112,68.936 -47.377,132.6585 -70.857,199.0851 -35.215,93.8613 -50.549,193.3433 -65.942,291.9371 -21.306,98.1456 -36.017,197.6509 -63.474,294.3379 -23.063,84.1338 -44.761,168.5386 -70.813,251.8226 -31.719,84.0503 -65.343,167.4547 -98.972,250.7928 -31.678,53.3365 -44.578,109.5261 -55.808,169.3093 -59.905,225.0993 -201.97,396.2633 -394.211,495.1176 -60.154,29.9351 -121.289,57.8301 -182.131,86.3205 -88.147,40.3549 -175.423,82.5698 -262.987,124.1683 -56.162,24.5559 -107.854,57.8834 -153.299,98.7503 0,0 218.02,-423.8866 218.02,-423.8866 l 0,0 c 51.253,-35.578 104.588,-67.9876 162.127,-92.584 88.052,-41.988 176.431,-83.2954 264.159,-125.9648 60.475,-28.7057 121.323,-56.8547 180.008,-89.1152 24.368,-14.64 49.123,-28.9856 69.367,-49.3242 5.975,-6.0034 21.166,-26.406 16.453,-19.3669 -238.499,356.1493 -349.2,488.8576 -237.414,353.6566 26.174,-55.8721 9.748,-124.0923 54.562,-174.072 35.091,-82.9898 65.199,-167.7298 103.313,-249.5223 26.485,-82.8568 50.813,-166.3329 70.639,-251.0668 31.666,-95.3946 46.675,-193.8072 69.899,-291.3467 15.477,-98.6674 26.367,-199.3527 57.242,-294.6015 21.507,-65.1318 43.531,-130.4177 76.487,-190.5388 4.453,-8.9528 13.101,-15.6825 16.389,-25.1258 8.026,-23.0508 -94.89,-3.6702 -82.162,-11.0381 -118.354,14.9709 -235.196,37.9225 -351.866,62.6499 -149.125,26.9903 -298.098,54.7892 -449.783,63.0769 -144.708,13.6257 -289.841,20.0898 -435.144,11.2518 -138.748,-9.4797 -276.265,-22.7648 -413.004,-49.4698 -105.825,-21.5161 -212.381,-43.0728 -313.219,-82.6893 285.736,-461.0817 120.082,-442.6796 412.067,-371.6014 96.585,30.6068 193.419,60.8303 288.959,94.4519 103.227,38.8732 205.783,79.5135 309.35,117.4796 131.108,47.0709 259.569,101.7562 387.579,156.5257 90.946,40.8855 40.556,16.8462 127.437,61.2823 59.697,30.5334 123.606,58.3778 153.638,122.5202 -246.125,372.8188 -159.838,370.3989 -409.61,484.553 -61.915,29.4823 -123.847,58.9299 -185.793,88.3486 -65.404,31.109 -130.632,62.5837 -196.051,93.6627 -68.657,32.5931 -137.368,65.0744 -205.954,97.8144 -74.931,36.0132 -150.301,71.1121 -224.986,107.6371 -61.001,29.5333 -122.298,58.4496 -183.486,87.5911 -66.903,31.783 -133.859,63.4541 -200.54,95.7028 -71.253,33.7891 -142.581,67.4231 -213.921,101.0271 -89.954,42.5392 -179.549,85.8184 -269.229,128.9317 -84.867,40.0796 -169.623,80.395 -254.33,120.8124 -89.958,43.4932 -180.515,85.7347 -270.73,128.6915 -130.516,61.2589 -261.132,122.3065 -391.096,184.7306 -199.599,93.7498 -399.507,186.8576 -598.192,282.5366 -214.404,102.243 -427.819,206.547 -642.357,308.514 -172.606,81.622 -345.149,163.63 -521.49,236.969 -169.577,69.669 -341.966,131.543 -513.37,196.476 -157.481,57.94 -314.836,116.001 -471.201,176.919 -127.292,48.835 -253.242,101.948 -385.897,135.146 -99.109,28.804 -198.359,57.165 -295.043,93.514 -103.055,37.933 -201.326,86.603 -299.258,136.12 0,0 228.47,-420.794 228.47,-420.794 z"
       inkscape:connector-curvature="0" />
    <rect
       style="fill:#ffffff;fill-opacity:1"
       id="rect3284"
       width="7370.0728"
       height="905.09668"
       x="4622.458"
       y="-1889.202" />
    <text
       xml:space="preserve"
       style="font-size:40px;font-style:normal;font-weight:normal;line-height:125%;letter-spacing:0px;word-spacing:0px;fill:#000000;fill-opacity:1;stroke:none;font-family:Sans"
       x="8760.0439"
       y="-6673.2847"
       id="text3288"
       sodipodi:linespacing="125%"><tspan
         sodipodi:role="line"
         id="tspan3290"
         x="8760.0439"
         y="-6673.2847">SAVE</tspan></text>
    <text
       xml:space="preserve"
       style="font-size:40px;font-style:normal;font-weight:normal;line-height:125%;letter-spacing:0px;word-spacing:0px;fill:#000000;fill-opacity:1;stroke:none;font-family:Sans"
       x="24446.799"
       y="3674.8777"
       id="text3089"
       sodipodi:linespacing="125%"><tspan
         sodipodi:role="line"
         id="tspan3091"
         x="24446.799"
         y="3674.8777"
         style="font-size:500px">Recreation</tspan></text>
    <rect
       style="fill:#000000;fill-opacity:1"
       id="rect3093"
       width="1034.3962"
       height="937.42151"
       x="10958.135"
       y="-1921.5269" />
    <path
       style="fill:#ffffff;stroke:#000000;stroke-width:1px;stroke-linecap:butt;stroke-linejoin:miter;stroke-opacity:1"
       d="m 11184.409,-1598.2782 258.599,323.2489 226.274,-323.2489 -484.873,0"
       id="path3096"
       inkscape:path-effect="#path-effect3098"
       inkscape:original-d="m 11184.409,-1598.2782 258.599,323.2489 226.274,-323.2489 z"
       inkscape:connector-curvature="0" />
    <rect
       y="-19086.711"
       x="-13455.249"
       height="6967.5137"
       width="6298.8896"
       id="rect3100"
       style="fill:#000000;fill-opacity:1" />
    <rect
       y="-18840.074"
       x="-13120.525"
       height="6392.0259"
       width="5599.0132"
       id="rect3102"
       style="fill:#008080;fill-opacity:1" />
    <rect
       y="-18811.35"
       x="-13057.892"
       height="1060.2896"
       width="5474.6138"
       id="rect3104"
       style="fill:#000080;fill-opacity:1" />
    <text
       transform="scale(1.1174984,0.89485586)"
       sodipodi:linespacing="125%"
       id="text3106"
       y="-20383.646"
       x="-11365.926"
       style="font-size:79.75099182px;font-style:normal;font-weight:normal;line-height:125%;letter-spacing:0px;word-spacing:0px;fill:#000000;fill-opacity:1;stroke:none;font-family:Sans"
       xml:space="preserve"><tspan
         style="font-size:319.00396729px;fill:#ffffff"
         y="-20383.646"
         x="-11365.926"
         id="tspan3108"
         sodipodi:role="line">CLAIMS</tspan></text>
    <rect
       y="-17628.719"
       x="-12981.501"
       height="5015.9858"
       width="5347.2969"
       id="rect3116"
       style="fill:#ffffff;fill-opacity:1" />
    <rect
       y="-18770.57"
       x="-8881.9062"
       height="937.94855"
       width="1222.2394"
       id="rect3118"
       style="fill:#000000;fill-opacity:1" />
    <path
       transform="matrix(2.2280405,0,0,1.7841412,-8245.3233,-16203.072)"
       d="m 22.857141,-1307.6378 a 51.42857,51.42857 0 1 1 -102.857139,0 51.42857,51.42857 0 1 1 102.857139,0 z"
       sodipodi:ry="51.42857"
       sodipodi:rx="51.42857"
       sodipodi:cy="-1307.6378"
       sodipodi:cx="-28.571428"
       id="path3120"
       style="fill:#ffffff;fill-opacity:1"
       sodipodi:type="arc" />
    <path
       transform="matrix(2.2280405,0,0,-1.7841415,-8245.3233,-20563.241)"
       d="m 22.857141,-1307.6378 a 51.42857,51.42857 0 1 1 -102.857139,0 51.42857,51.42857 0 1 1 102.857139,0 z"
       sodipodi:ry="51.42857"
       sodipodi:rx="51.42857"
       sodipodi:cy="-1307.6378"
       sodipodi:cx="-28.571428"
       id="path3122"
       style="fill:#ffffff;fill-opacity:1"
       sodipodi:type="arc" />
    <path
       sodipodi:type="arc"
       style="fill:#ffffff;fill-opacity:1"
       id="path3124"
       sodipodi:cx="-28.571428"
       sodipodi:cy="-1307.6378"
       sodipodi:rx="51.42857"
       sodipodi:ry="51.42857"
       d="m 22.857141,-1307.6378 a 51.42857,51.42857 0 1 1 -102.857139,0 51.42857,51.42857 0 1 1 102.857139,0 z"
       transform="matrix(2.2280405,0,0,-1.7841415,-8232.5916,-20328.753)" />
    <text
       xml:space="preserve"
       style="font-size:40px;font-style:normal;font-weight:normal;line-height:125%;letter-spacing:0px;word-spacing:0px;fill:#000000;fill-opacity:1;stroke:none;font-family:Sans"
       x="-12897.628"
       y="-16984.922"
       id="text3130"
       sodipodi:linespacing="125%"><tspan
         sodipodi:role="line"
         id="tspan3132"
         x="-12897.628"
         y="-16984.922"
         style="font-size:500px">EURO TRIP</tspan></text>
    <rect
       style="fill:#000000;fill-opacity:1"
       id="rect3134"
       width="5398.2554"
       height="64.649765"
       x="-13026.927"
       y="-16823.297" />
    <path
       inkscape:connector-curvature="0"
       inkscape:original-d="m -8863.7326,-15393.159 -244.482,-205.714 -188.064,137.143 -75.225,388.571 225.676,502.857 413.74,365.714 470.1583,228.572 244.4824,137.143 470.1586,0 677.0282,-22.857 564.19,22.857 263.2888,-548.572 -225.6755,-800 -150.4506,-800 -526.5776,-891.428 -658.2223,-480 -37.6127,388.571 -188.0635,-228.571 -206.8697,137.143 -18.8064,228.571 394.9332,777.143 -451.3522,-891.429 -300.9015,45.715 -37.6127,91.428 -94.0317,91.429 376.1269,594.285 -902.704,-1257.142 -564.1901,-160 -507.7713,205.714 37.612,297.143 338.5143,91.428 470.1581,274.286 300.902,502.857 169.257,502.857 z"
       inkscape:path-effect="#path-effect3128"
       id="path3126"
       d="m -8863.7326,-15393.159 -244.482,-205.714 -188.064,137.143 -75.225,388.571 225.676,502.857 413.74,365.714 c 159.5546,70.165 316.4266,146.43 470.1583,228.572 82.4193,44.038 163.9362,89.766 244.4824,137.143 156.7095,2.167 313.4491,2.167 470.1586,0 225.798,-3.122 451.5338,-10.743 677.0282,-22.857 l 564.19,22.857 263.2888,-548.572 -225.6755,-800 -150.4506,-800 -526.5776,-891.428 -658.2223,-480 -37.6127,388.571 -188.0635,-228.571 -206.8697,137.143 -18.8064,228.571 394.9332,777.143 -451.3522,-891.429 -300.9015,45.715 -37.6127,91.428 -94.0317,91.429 376.1269,594.285 -902.704,-1257.142 -564.1901,-160 -507.7713,205.714 37.612,297.143 338.5143,91.428 470.1581,274.286 300.902,502.857 169.257,502.857 -37.613,274.286"
       style="fill:#008000;stroke:#000000;stroke-width:0.90707082px;stroke-linecap:butt;stroke-linejoin:miter;stroke-opacity:1" />
    <path
       inkscape:connector-curvature="0"
       d="m -4343.6417,-17738.529 c 92.7896,1.829 185.6156,1.306 278.42,1.168 94.0097,0.2 188.0176,0.102 282.0279,-0.281 85.6531,-0.107 171.304,0.203 256.9579,-0.04 88.2218,0.315 176.4441,-0.01 264.6657,0.184 77.2064,-5.202 157.1485,9.462 233.1141,-6.992 54.3875,-19.295 114.4657,-12.14 168.2265,-30.989 53.6357,-18.815 110.5041,-22.638 166.786,-25.584 63.647,-2.431 127.3569,-2.17 191.0387,-2.13 64.5419,-2.503 127.8909,-18.739 192.4502,-25.487 72.7339,-5.64 145.8021,-5.859 218.7225,-6.43 65.5521,-4.728 133.5748,8.77 197.7625,-6.824 55.3807,-15.956 112.8086,-20.502 170.0722,-23.509 63.5694,-2.504 127.2041,-2.336 190.811,-2.348 64.7071,0.06 129.414,0.164 194.1211,0.216 64.6701,0.04 129.3403,0.05 194.0105,0.05 64.6501,0 129.3003,0 193.95039,0 64.64948,0 129.29898,0 193.94838,0 64.6498,0 129.2995,0 193.9493,0 64.6497,0 129.2995,0 193.9493,0 54.2871,-16.232 109.9219,-24.229 166.2434,-28.631 60.9063,-7.583 124.017202,4.485 183.598892,-10.663 144.368998,-102.559 -1.3227,1.943 -373.885292,209.517 -5.9151,3.296 11.2545,-7.802 15.643,-12.959 13.9516,-16.393 16.3529,-31.49 14.0908,-51.652 -15.8324,-54.306 -48.4186,-101.196 -79.5681,-147.69 -28.8303,-51.212 -66.0228,-96.223 -103.524,-141.038 -34.5623,-36.477 -72.6854,-69.447 -106.5035,-106.58 -37.7333,-28.092 -76.468,-53.07 -110.1273,-86.519 -42.8988,-34.346 -81.5624,-73.437 -122.5636,-109.938 -42.9473,-25.498 -76.59838,-63.732 -121.22987,-86.265 -41.3687,-24.45 -75.8293,-57.444 -113.4066,-86.861 -33.9852,-31.184 -64.3079,-66.296 -99.0287,-96.654 -54.6477,-31.18 21.94,11.139 -37.2997,-16.903 -211.7938,-100.258 292.37859,-244.871 372.58357,-294.811 47.2406,31.482 96.0372,59.474 145.425,87.51 62.7968,47.43 136.8257,74.08 204.9249,112.187 66.019,36.953 136.0828,67.226 200.1069,107.547 47.3871,31.248 93.4814,62.799 145.3044,86.733 49.6745,29.755 97.971202,61.292 147.045392,91.891 49.2856996,28.813 93.447,64.39 139.3669,97.965 45.949598,20.083 73.804108,62.907 108.415808,96.907 27.1088,34.028 63.5919,62.148 103.6782,79.299 50.44215,12.144 90.60155,49.156 118.94785,91.188 28.0259,50.715 31.4259,103.946 11.631,157.699 -17.746,47.394 -53.9117,77.867 -92.0297,108.239 -39.44025,24.714 -71.03515,59.39 -110.73545,83.565 -185.290108,139.2 -400.0962,230.613 -600.5656,344.331 -67.1596,26.302 -128.2129,64.622 -193.1773,95.405 -181.6812,59.02 -469.67137,242.316 236.7865,-160 -266.6126,277.244 -304.3522,192.98 -494.0724,272.415 -26.1399,10.945 -48.2668,24.224 -75.7731,32.802 -9.2237,1.965 -18.7597,2.81 -27.6713,5.897 -7.9686,2.76 -15.0254,7.661 -22.5381,11.492 -7.88008,3.105 -15.60808,6.627 -23.64018,9.314 -25.9288,8.672 -49.49759,10.849 -74.10079,23.282 -7.7544,3.02 -16.0495,4.91 -23.2632,9.059 -54.6258,31.415 18.9765,-0.813 -38.6873,26.623 -23.5537,11.206 -46.2271,14.077 -68.859,27.571 -22.015,14.903 -49.5703,14.073 -73.5872,22.344 -130.1411,44.819 -580.2415,323.95 347.58097,-202.102 -149.06547,87.018 -328.66567,191.972 -454.22527,258.067 -133.0894,70.059 517.77697,-305.976 391.69259,-223.977 -139.19649,90.525 -288.47939,164.547 -431.08729,249.597 -5.9576,3.553 1120.63917,-646.838 -46.3816,26.858 -147.5831,61.213 -387.7079,209.412 338.7489,-199.167 14.6999,-8.268 -24.9902,23.055 -39.5752,31.524 -144.0843,83.662 -289.3771,165.226 -434.0656,247.838 -140.4862,85.325 -334.5686,187.128 349.0466,-200.567 7.3607,-4.174 -14.0218,9.497 -20.718,14.67 -14.0862,10.884 -27.4675,22.655 -41.4535,33.667 -8.1725,-0.441 -31.1276,38.794 -42.4876,33.893 -3.0521,-1.317 -9.5857,-15.079 -4.0213,-18.801 3.7338,-2.497 8.9539,-0.734 13.4309,-1.102 49.7391,-23.652 104.2779,-34.284 155.4689,-54.16 78.2804,-16.807 149.7356,-52.251 225.11157,-78.016 74.2291,-30.322 154.6395,-42.653 225.8461,-80.078 54.7185,-29.741 117.4846,-42.96 171.6314,-72.864 8.5484,-3.803 33.7425,-16.093 25.6451,-11.407 -122.1017,70.667 -490.54657,278.935 -368.1731,208.74 144.4236,-82.843 288.0899,-167.041 433.7085,-247.765 33.5959,-9.057 18.131,-2.381 46.6472,-19.431 316.042202,-165.559 -519.6046,311.78 -272.4699,159.121 40.6318,-31.022 80.8366,-63.01 116.9316,-99.305 36.7237,-41.177 80.0158,-74.545 122.6189,-109.166 35.7257,-33.619 80.9054,-55.298 115.314,-89.982 31.7037,-32.983 63.2465,-66.37 93.3028,-100.919 30.1043,-27.825 50.9555,-62.94 78.3377,-93.342 0,0 444.1925,-180.999 444.1925,-180.999 l 0,0 c -35.102,24.428 -56.3574,55.423 -78.3848,91.245 -35.6526,28.605 -63.83991,66.649 -93.27511,101.229 -59.276398,53.569 27.0969,-26.592 -32.231098,36.119 -23.6135,24.96 -62.6195,28.706 -81.4731,59.935 -44.8343,29.47 -90.05309,62.728 -124.624492,104.025 -39.1914,33.398 -72.3701,73.941 -115.1586,103.078 -25.8553,24.62 -11.8121,14.135 -42.7913,32.047 -167.6314,96.928 -330.0631,204.1 -505.6115,286.229 -15.6569,5.921 -60.5306,28.405 -46.0818,19.954 829.6261916,-485.254 158.0835,-80.976 -91.6973,48.586 -58.07048,21.383 -114.49567,46.778 -171.14517,71.639 -75.2649,27.073 -152.6461,47.697 -227.1267,77.035 -74.5882,28.593 -149.4928,54.959 -226.039,77.886 -55.6815,17.088 -115.2051,46.15 -174.1127,34.755 -58.9926,-24.721 -73.4595,-70.577 -15.158,-106.44 44.5313,-47.512 -7.5255,5.267 40.5797,-35.333 145.5275,-122.821 322.3788,-205.311 491.6538,-293.355 -129.4354,75.285 -259.0458,150.271 -388.3063,225.856 -14.2761,8.348 27.2767,-18.74 41.4274,-27.299 142.5991,-86.248 285.8412,-171.437 429.5089,-255.894 16.0747,-9.449 35.1878,-13.077 50.1756,-24.731 -994.001,576.789 5.7402,-3.036 46.4965,-27.973 128.17267,-78.424 -522.0351,297.805 -390.0477,225.986 1453.485962,-790.886 -281.2874,116.788 62.1391,-35.185 206.8467,-117.604 349.58529,-217.103 549.91807,-291.577 46.2822,-16.652 85.9313,-45.487 133.0294,-60.178 50.3882,-13.357 98.1191,-33.868 147.7367,-49.63 168.2331,-74.19 462.007402,-221.267 -254.8702,162.101 145.8789,-83.269 290.9404,-167.988 437.6368,-249.809 45.4323,-25.34 102.1577,-31.885 146.2811,-61.037 62.591,-33.614 127.427502,-62.36 190.3046916,-95.35 38.0975004,-20.45 76.1122004,-41.05 113.9869984,-61.91 11.1586,-6.145 44.41701,-24.968 33.4104,-18.555 -354.99159,206.859 -515.86549,296.317 -364.25969,211.866 35.45,-29.849 79.4633,-48.541 110.200502,-85.079 39.6231,-22.021 74.73779,-46.946 102.7026896,-82.805 21.0667004,-42.229 35.9537004,-68.125 10.8887004,-114.748 -26.3641,-36.728 -64.67559,-55.865 -106.34089,-71.194 -41.964802,-24.511 -81.671302,-54.054 -112.153802,-92.299 -32.0258,-33.903 -61.9051,-69.288 -104.1939,-91.13 -43.903,-34.319 -89.3899,-66.066 -137.012,-95.078 -46.8726,-30.945 -95.0905,-59.688 -143.897,-87.487 -51.3721,-26.811 -98.4897,-59.074 -146.8408,-90.766 -64.5946,-37.69 -132.168,-70.163 -197.6542,-106.278 -69.49597,-36.241 -141.37047,-67.865 -206.85377,-111.481 -46.1713,-24.896 -89.0977,-58.814 -139.6738,-73.445 299.72949,-204.899 283.79869,-356.368 468.67857,-216.616 32.6064,31.306 63.9024,63.941 97.4976,94.224 34.6574,29.278 69.9204,57.659 109.157,80.742 44.105,28.784 83.5583,64.121 126.0322,95.25 40.3013,37.765 81.6054,74.273 123.442,110.343 35.6774,31.896 77.7303,55.353 111.9946,88.837 35.3938,36.703 72.643,71.572 106.9729,109.322 38.676302,46.011 75.676102,93.273 105.741492,145.549 34.6521996,51.075 68.5113,103.593 89.2106,162.088 66.646398,217.996 -302.672592,343.926 -462.191092,370.216 -61.5323,2.755 -123.3034,1.827 -184.5807,9.056 -56.4228,7.355 -111.7243,22.896 -168.722,24.302 -64.6497,0 -129.2995,0 -193.94928,0 -64.64969,0 -129.29939,0 -193.94909,0 -64.6495,0 -129.2989,0 -193.9483,0 -64.6509,0 -129.3019,0 -193.9529,0 -64.6764,-0.01 -129.3528,-0.02 -194.0292,-0.09 -64.6813,-0.07 -129.3628,-0.21 -194.0441,-0.07 -63.0659,0.302 -126.2147,0.491 -189.1327,5.332 -56.7796,5.408 -112.4169,16.295 -168.5677,25.885 -66.6653,2.275 -133.3969,0.144 -200.0893,1.293 -72.1514,0.901 -144.5005,1.862 -216.172,11.111 -65.0762,8.997 -129.763,24.041 -195.8772,20.936 -63.1079,0.237 -126.3125,0.269 -189.2634,5.285 -55.3662,5.642 -109.3728,16.546 -162.9217,31.761 -57.1419,7.271 -113.7058,17.178 -170.5333,26.388 -78.1132,2.903 -156.3304,-0.153 -234.4816,0.741 -88.3905,0.193 -176.7816,-0.13 -265.1722,0.184 -85.6162,-0.246 -171.2295,0.07 -256.8449,-0.04 -93.7526,-0.386 -187.5029,-0.48 -281.255,-0.281 -93.8757,-0.14 -187.7713,-0.635 -281.633,1.168 0,0 387.9841,-281.887 387.9841,-281.887 z"
       id="path3136"
       style="fill:#000000;fill-opacity:1" />
    <rect
       y="-24597.465"
       x="2922.374"
       height="11202.073"
       width="9208.1289"
       id="rect3138"
       style="fill:#000000;fill-opacity:1" />
    <rect
       y="-24200.93"
       x="3411.6948"
       height="10276.828"
       width="8185.0039"
       id="rect3140"
       style="fill:#008080;fill-opacity:1" />
    <rect
       y="-24154.75"
       x="3503.2571"
       height="1704.6886"
       width="8003.1484"
       id="rect3142"
       style="fill:#000080;fill-opacity:1" />
    <text
       transform="scale(1.0655904,0.93844689)"
       sodipodi:linespacing="125%"
       id="text3144"
       y="-24760.957"
       x="3776.6792"
       style="font-size:122.26441193px;font-style:normal;font-weight:normal;line-height:125%;letter-spacing:0px;word-spacing:0px;fill:#000000;fill-opacity:1;stroke:none;font-family:Sans"
       xml:space="preserve"><tspan
         style="font-size:489.05764771px;fill:#ffffff"
         y="-24760.957"
         x="3776.6792"
         id="tspan3146"
         sodipodi:role="line">Claim Name</tspan></text>
    <rect
       y="-22253.365"
       x="3614.9297"
       height="8064.4893"
       width="7817.0283"
       id="rect3154"
       style="fill:#ffffff;fill-opacity:1" />
    <rect
       y="-24089.184"
       x="9607.9863"
       height="1507.9939"
       width="1786.7495"
       id="rect3156"
       style="fill:#000000;fill-opacity:1" />
    <path
       transform="matrix(3.2570954,0,0,2.8684666,10538.583,-19961.272)"
       d="m 22.857141,-1307.6378 a 51.42857,51.42857 0 1 1 -102.857139,0 51.42857,51.42857 0 1 1 102.857139,0 z"
       sodipodi:ry="51.42857"
       sodipodi:rx="51.42857"
       sodipodi:cy="-1307.6378"
       sodipodi:cx="-28.571428"
       id="path3158"
       style="fill:#ffffff;fill-opacity:1"
       sodipodi:type="arc" />
    <path
       transform="matrix(3.2570954,0,0,-2.8684671,10538.583,-26971.367)"
       d="m 22.857141,-1307.6378 a 51.42857,51.42857 0 1 1 -102.857139,0 51.42857,51.42857 0 1 1 102.857139,0 z"
       sodipodi:ry="51.42857"
       sodipodi:rx="51.42857"
       sodipodi:cy="-1307.6378"
       sodipodi:cx="-28.571428"
       id="path3160"
       style="fill:#ffffff;fill-opacity:1"
       sodipodi:type="arc" />
    <path
       sodipodi:type="arc"
       style="fill:#ffffff;fill-opacity:1"
       id="path3162"
       sodipodi:cx="-28.571428"
       sodipodi:cy="-1307.6378"
       sodipodi:rx="51.42857"
       sodipodi:ry="51.42857"
       d="m 22.857141,-1307.6378 a 51.42857,51.42857 0 1 1 -102.857139,0 51.42857,51.42857 0 1 1 102.857139,0 z"
       transform="matrix(3.2570954,0,0,-2.8684671,10557.195,-26594.367)" />
    <rect
       y="-23787.994"
       x="7744.8721"
       height="917.55835"
       width="1324.0927"
       id="rect3110"
       style="fill:#ff0000;fill-opacity:1" />
    <path
       inkscape:connector-curvature="0"
       d="m 8524.2925,-23737.64 c -0.392,52.934 -11.429,105.241 -18.3468,157.762 -5.401,42.486 -6.653,85.194 -7.357,127.864 -0.435,40.69 -0.29,81.382 -0.232,122.072 0.06,40.748 0.09,81.495 0.102,122.242 -1.922,17.867 1.838,35.173 5.884,52.609 0,0 -333.127,142.549 -333.127,142.549 l 0,0 c -5,-19.18 -11.074,-38.304 -8.633,-58.109 -0.02,-40.737 -0.03,-81.475 -0.1,-122.213 -0.06,-40.81 -0.209,-81.621 0.07,-122.432 0.518,-43.59 1.416,-87.228 6.573,-130.657 6.567,-51.393 20.12,-102.653 18.558,-154.35 0,0 336.6008,-137.337 336.6008,-137.337 z"
       id="path3112"
       style="fill:#000000;fill-opacity:1" />
    <path
       inkscape:connector-curvature="0"
       d="m 8122.7137,-23448.707 c 70.788,1.244 141.604,0.751 212.403,0.543 56.316,-0.19 112.632,-0.28 168.948,-0.327 50.9568,-0.03 101.9136,-0.03 152.8706,-0.03 50.8443,0 101.6887,0 152.533,0 48.3083,4.591 92.7017,-4.161 139.293,-11.832 0,0 -301.0937,182.628 -301.0937,182.628 l 0,0 c -47.4145,7.539 -94.9171,7.605 -143.1729,6.635 -50.848,0 -101.696,0 -152.544,0 -50.924,0 -101.847,0 -152.771,-0.03 -55.942,-0.05 -111.884,-0.136 -167.825,-0.327 -71.421,-0.212 -142.858,-0.683 -214.268,0.543 0,0 305.627,-177.811 305.627,-177.811 z"
       id="path3114"
       style="fill:#000000;fill-opacity:1" />
    <path
       inkscape:connector-curvature="0"
       inkscape:original-d="m 9357.7542,-21324.137 -244.483,-205.714 -188.063,137.143 -75.225,388.571 225.676,502.857 413.739,365.714 470.159,228.572 244.4818,137.143 470.159,0 677.028,-22.857 564.19,22.857 263.289,-548.572 -225.675,-800 -150.451,-800 -526.578,-891.428 -658.222,-480 -37.613,388.571 -188.063,-228.571 -206.87,137.143 -18.806,228.571 394.933,777.143 -451.352,-891.429 -300.9018,45.715 -37.613,91.428 -94.031,91.429 376.1268,594.285 -902.7048,-1257.142 -564.19,-160 -507.771,205.714 37.612,297.143 338.514,91.428 470.159,274.286 300.901,502.857 169.258,502.857 z"
       inkscape:path-effect="#path-effect3166"
       id="path3164"
       d="m 9357.7542,-21324.137 -244.483,-205.714 -188.063,137.143 -75.225,388.571 225.676,502.857 413.739,365.714 c 159.5549,70.165 316.4271,146.43 470.159,228.572 82.4188,44.038 163.9358,89.765 244.4818,137.143 156.71,2.167 313.449,2.167 470.159,0 225.798,-3.122 451.534,-10.743 677.028,-22.857 l 564.19,22.857 263.289,-548.572 -225.675,-800 -150.451,-800 -526.578,-891.428 -658.222,-480 -37.613,388.571 -188.063,-228.571 -206.87,137.143 -18.806,228.571 394.933,777.143 -451.352,-891.429 -300.9018,45.715 -37.613,91.428 -94.031,91.429 376.1268,594.285 -902.7048,-1257.142 -564.19,-160 -507.771,205.714 37.612,297.143 338.514,91.428 470.159,274.286 300.901,502.857 169.258,502.857 -37.613,274.286"
       style="fill:#008000;stroke:#000000;stroke-width:0.90707082px;stroke-linecap:butt;stroke-linejoin:miter;stroke-opacity:1" />
    <text
       xml:space="preserve"
       style="font-size:40px;font-style:normal;font-weight:normal;line-height:125%;letter-spacing:0px;word-spacing:0px;fill:#000000;fill-opacity:1;stroke:none;font-family:Sans"
       x="529.63605"
       y="-26098.471"
       id="text3168"
       sodipodi:linespacing="125%"><tspan
         sodipodi:role="line"
         id="tspan3170"
         x="529.63605"
         y="-26098.471"
         style="font-size:1000px">EXPENSE LIST FOR THE CLAIM</tspan></text>
    <path
       style="fill:#000000;fill-opacity:1"
       id="path3172"
       d="m 14346.909,-15924.105 c 144.675,3.11 289.406,2.541 434.105,1.981 159.74,17.357 319.748,31.008 480.22,39.133 153.609,6.307 307.383,6.766 461.096,7.421 173.576,-0.225 347.15,0.472 520.726,0.482 203.609,0.09 407.216,0.735 610.825,0.566 236.263,-0.734 472.521,1.247 708.781,2.076 259.519,-0.482 519.039,-0.524 778.558,-1.333 212.118,-0.867 424.238,-0.706 636.358,-1.025 184.453,-0.176 368.914,-1.371 553.365,-0.231 183.172,-0.233 366.344,-0.103 549.515,-0.581 160.81,-0.696 321.623,-0.103 482.434,-0.493 147.977,0.162 295.953,-0.201 443.93,-0.589 114.504,-0.744 229.008,-0.715 343.514,-0.671 111.692,9.368 219.439,-8.631 329.237,-24.733 136.212,-16.577 274.024,-16.362 411.079,-19.055 137.937,-1.121 275.881,-1.54 413.822,-2.039 99.743,-0.347 199.486,-0.43 299.229,-0.475 103.592,0.718 207.188,0.384 310.782,0.234 95.896,-0.04 191.793,-0.475 287.688,0.09 107.169,-3.574 212.75,-26.262 319.954,-35.519 110.404,-9.15 221.215,-9.329 331.907,-10.126 101.688,8.717 198.94,-9.008 298.448,-25.54 88.936,-20.438 183.136,-5.285 270.619,-29.465 230.896,-115.619 -141.161,69.99 -547.819,323.117 -5.126,3.192 11.745,13.792 6.56,16.887 -0.609,0.363 -103.622,-63.276 -114.69,-69.822 -136.58,-73.224 -268.554,-155.148 -406.676,-225.345 -187.054,-97.57 -366.485,-209.063 -554.89,-303.989 -160.038,-76.307 -316.974,-158.844 -478.434,-232.137 -109.905,-54.51 -215.031,-117.383 -320.097,-180.42 -90.089,-40.873 -173.726,-89.984 -255.841,-144.52 -17.807,10.262 -33.271,-24.479 -50.76,-19.649 -4.761,1.315 -7.298,16.908 -2.976,14.517 197.32,-109.159 384.337,-237.233 586.426,-337.285 12.69,-6.282 14.906,24.182 23.893,35.124 11.616,14.144 25.149,26.599 37.724,39.898 120.956,120.723 251.412,230.215 381.708,340.386 176.114,164.984 371.201,306.619 564.439,450.269 222.792,157.192 443.068,317.909 670.067,469.029 209.958,129.992 420.996,258.407 633.036,384.97 193.058,116.497 388.657,228.276 586.848,335.92 136.219,84.141 285.046,145.165 423.593,224.645 359.632,148.472 -193.519,492.804 -508.28,474.144 -129.045,-0.398 -258.095,-0.409 -387.147,-1.231 -182.888,-0.989 -365.774,-1.786 -548.664,-2.505 -234.98,-0.382 -469.96,-1.166 -704.94,-1.557 -270.32,-0.384 -540.639,-0.42 -810.959,-0.453 -227.761,-2.618 -456.557,4.506 -681.968,38.904 -112.271,31.125 -250.227,14.51 -348.359,85.826 613.06,-433.881 391.514,-369.792 811.364,-374.747 0,0 -545.567,396.708 -545.567,396.708 l 0,0 c -433.516,-1.631 -320.69,-49.172 266.329,-445.927 115.174,-29.626 233.241,-43.951 350.787,-60.926 226.027,-24.482 453.143,-32.427 680.447,-27.111 270.742,-0.04 541.484,-0.08 812.225,-0.464 236.299,-0.38 472.598,-1.177 708.897,-1.25 184.331,-0.408 368.661,-0.698 552.991,-0.549 129.174,-0.324 259.561,3.822 387.826,-12.986 266.962,-120.741 -658.364,358.237 -513.086,358.326 5.086,0 -6.877,-7.582 -10.963,-10.611 -22.209,-16.466 -52.962,-33.017 -75.961,-46.294 -137.549,-78.24 -281.132,-145.789 -416.32,-228.39 -196.159,-111.207 -392.3,-221.952 -584.352,-340.097 -212.494,-127.332 -425.453,-254.23 -633.433,-388.836 -226.392,-153.405 -447.744,-313.965 -671.298,-471.438 -196.912,-142.179 -391.093,-288.031 -571.993,-450.524 -134.021,-110.76 -267.761,-221.596 -392.865,-342.608 -39.531,-41.594 -82.752,-84.87 -76.164,-90.472 522.133,-443.987 373.234,-510.246 627.69,-357.561 80.465,54.752 167.98,95.396 252.648,143.181 101.633,63.555 206.63,121.58 313.378,176.099 158.713,77.939 315.588,159.505 474.065,237.914 186.843,99.248 369.117,207.152 558.435,301.802 138.47,73.525 274.712,151.215 412.539,225.978 42.372,25.151 104.736,51.259 137.354,90.148 184.756,220.268 -345.646,383.207 -588.208,413.545 -90.212,6.997 -180.776,11.311 -269.919,28.12 -100.731,15.879 -201.304,19.278 -303.268,16.41 -109.513,1.276 -219.14,3.847 -328.183,14.883 -108.066,12.134 -215.452,34.799 -324.726,30.739 -95.979,0.557 -191.96,0.144 -287.94,0.09 -103.788,-0.155 -207.577,-0.488 -311.363,0.146 -99.075,-0.149 -198.149,-0.435 -297.222,-0.98 -136.95,-0.636 -273.914,-1.305 -410.847,1.571 -136.7,2.76 -273.825,6.261 -409.112,27.95 -111.219,15.832 -222.224,20.547 -334.625,16.671 -113.89,0.04 -227.778,0.08 -341.667,-0.672 -147.436,-0.389 -294.872,-0.751 -442.309,-0.588 -160.358,-0.392 -320.718,0.204 -481.076,-0.494 -182.637,-0.48 -365.277,-0.346 -547.916,-0.58 -184.239,1.119 -368.488,-0.04 -552.728,-0.232 -211.18,-0.318 -422.359,-0.155 -633.538,-1.025 -258.293,-0.813 -516.588,-0.851 -774.882,-1.337 -238.169,0.828 -476.337,2.794 -714.51,2.092 -204.235,-0.14 -408.468,0.536 -612.702,0.837 -174.21,0.197 -348.418,1.346 -522.626,0.581 -154.82,-0.364 -309.714,-0.815 -464.343,-9.53 -159.613,-10.18 -318.586,-28.903 -478.385,-35.726 -146.517,-0.573 -293.062,-1.066 -439.556,1.981 0,0 548.692,-398.649 548.692,-398.649 z"
       inkscape:connector-curvature="0" />
    <rect
       style="fill:#000000;fill-opacity:1"
       id="rect3174"
       width="10396.7"
       height="12390.645"
       x="26556.66"
       y="-21214.609" />
    <rect
       style="fill:#008080;fill-opacity:1"
       id="rect3176"
       width="9241.5117"
       height="11367.229"
       x="27109.141"
       y="-20776" />
    <rect
       style="fill:#000080;fill-opacity:1"
       id="rect3178"
       width="9036.1826"
       height="1885.5608"
       x="27212.521"
       y="-20724.92" />
    <text
       xml:space="preserve"
       style="font-size:136.63433838px;font-style:normal;font-weight:normal;line-height:125%;letter-spacing:0px;word-spacing:0px;fill:#000000;fill-opacity:1;stroke:none;font-family:Sans"
       x="25822.879"
       y="-21219.387"
       id="text3180"
       sodipodi:linespacing="125%"
       transform="scale(1.0766006,0.92884956)"><tspan
         sodipodi:role="line"
         id="tspan3182"
         x="25822.879"
         y="-21219.387"
         style="font-size:546.53735352px;fill:#ffffff">EXPENSE</tspan></text>
    <rect
       style="fill:#000000;fill-opacity:1"
       id="rect3186"
       width="2017.3805"
       height="1667.9963"
       x="34105.242"
       y="-20652.396" />
    <path
       sodipodi:type="arc"
       style="fill:#ffffff;fill-opacity:1"
       id="path3188"
       sodipodi:cx="-28.571428"
       sodipodi:cy="-1307.6378"
       sodipodi:rx="51.42857"
       sodipodi:ry="51.42857"
       d="m 22.857141,-1307.6378 a 51.42857,51.42857 0 1 1 -102.857139,0 51.42857,51.42857 0 1 1 102.857139,0 z"
       transform="matrix(3.6775164,0,0,3.172819,35155.958,-16086.501)" />
    <path
       sodipodi:type="arc"
       style="fill:#ffffff;fill-opacity:1"
       id="path3190"
       sodipodi:cx="-28.571428"
       sodipodi:cy="-1307.6378"
       sodipodi:rx="51.42857"
       sodipodi:ry="51.42857"
       d="m 22.857141,-1307.6378 a 51.42857,51.42857 0 1 1 -102.857139,0 51.42857,51.42857 0 1 1 102.857139,0 z"
       transform="matrix(3.6775164,0,0,-3.1728195,35155.958,-23840.387)" />
    <path
       transform="matrix(3.6775164,0,0,-3.1728195,35176.972,-23423.386)"
       d="m 22.857141,-1307.6378 a 51.42857,51.42857 0 1 1 -102.857139,0 51.42857,51.42857 0 1 1 102.857139,0 z"
       sodipodi:ry="51.42857"
       sodipodi:rx="51.42857"
       sodipodi:cy="-1307.6378"
       sodipodi:cx="-28.571428"
       id="path3192"
       style="fill:#ffffff;fill-opacity:1"
       sodipodi:type="arc" />
    <rect
       style="fill:#ffffff;fill-opacity:1"
       id="rect3204"
       width="8731.4287"
       height="959.99994"
       x="27337.143"
       y="-18193.352" />
    <text
       xml:space="preserve"
       style="font-size:40px;font-style:normal;font-weight:normal;line-height:125%;letter-spacing:0px;word-spacing:0px;fill:#000000;fill-opacity:1;stroke:none;font-family:Sans"
       x="27245.715"
       y="-18376.209"
       id="text3206"
       sodipodi:linespacing="125%"><tspan
         sodipodi:role="line"
         id="tspan3208"
         x="27245.715"
         y="-18376.209"
         style="font-size:500px;fill:#ffffff">DATE</tspan></text>
    <text
       xml:space="preserve"
       style="font-size:40px;font-style:normal;font-weight:normal;line-height:125%;letter-spacing:0px;word-spacing:0px;fill:#000000;fill-opacity:1;stroke:none;font-family:Sans"
       x="27474.285"
       y="-16639.066"
       id="text3214"
       sodipodi:linespacing="125%"><tspan
         sodipodi:role="line"
         id="tspan3216"
         x="27474.285"
         y="-16639.066"
         style="font-size:500px;fill:#ffffff">Category:</tspan></text>
    <rect
       style="fill:#ffffff;fill-opacity:1"
       id="rect3218"
       width="8777.1426"
       height="1188.5714"
       x="27291.428"
       y="-16456.209" />
    <rect
       style="fill:#ffffff;fill-opacity:1"
       id="rect3220"
       width="1782.8572"
       height="914.28577"
       x="27428.57"
       y="-14719.066" />
    <rect
       style="fill:#ffffff;fill-opacity:1"
       id="rect3222"
       width="6537.1426"
       height="1051.4285"
       x="29531.428"
       y="-14764.78" />
    <text
       xml:space="preserve"
       style="font-size:40px;font-style:normal;font-weight:normal;line-height:125%;letter-spacing:0px;word-spacing:0px;fill:#000000;fill-opacity:1;stroke:none;font-family:Sans"
       x="27337.143"
       y="-14810.495"
       id="text3224"
       sodipodi:linespacing="125%"><tspan
         sodipodi:role="line"
         id="tspan3226"
         x="27337.143"
         y="-14810.495"
         style="font-size:500px;fill:#ffffff">AMOUNT</tspan></text>
    <path
       inkscape:connector-curvature="0"
       inkscape:original-d="m 28784.409,-13758.278 258.599,323.249 226.274,-323.249 z"
       inkscape:path-effect="#path-effect3230"
       id="path3228"
       d="m 28784.409,-13758.278 258.599,323.249 226.274,-323.249 -484.873,0"
       style="fill:#000000;stroke:#000000;stroke-width:1px;stroke-linecap:butt;stroke-linejoin:miter;stroke-opacity:1" />
    <text
       xml:space="preserve"
       style="font-size:40px;font-style:normal;font-weight:normal;line-height:125%;letter-spacing:0px;word-spacing:0px;fill:#000000;fill-opacity:1;stroke:none;font-family:Sans"
       x="27291.426"
       y="-12981.924"
       id="text3232"
       sodipodi:linespacing="125%"><tspan
         sodipodi:role="line"
         id="tspan3234"
         x="27291.426"
         y="-12981.924"
         style="font-size:500px;fill:#ffffff">DESCRIPTION</tspan></text>
    <rect
       style="fill:#ffffff;fill-opacity:1"
       id="rect3236"
       width="8640"
       height="1051.4286"
       x="27428.572"
       y="-12936.209" />
    <rect
       style="fill:#ffffff;fill-opacity:1"
       id="rect3238"
       width="3428.5713"
       height="777.14282"
       x="27520"
       y="-11244.78" />
    <rect
       style="fill:#ffffff;fill-opacity:1"
       id="rect3240"
       width="868.57141"
       height="685.71429"
       x="31222.857"
       y="-11199.066" />
    <rect
       style="fill:#ffffff;fill-opacity:1"
       id="rect3242"
       width="3154.2856"
       height="1737.1428"
       x="33051.43"
       y="-11381.924" />
    <rect
       style="fill:#ff0000;fill-opacity:1"
       id="rect3260"
       width="274.28571"
       height="182.85715"
       x="33508.57"
       y="-11290.495" />
    <rect
       style="fill:#00ff00;fill-opacity:1"
       id="rect3262"
       width="182.85715"
       height="228.57143"
       x="34331.43"
       y="-10833.352" />
    <rect
       style="fill:#00ff00;fill-opacity:1"
       id="rect3267"
       width="457.14285"
       height="182.85715"
       x="34971.43"
       y="-10879.066" />
    <rect
       style="fill:#00ff00;fill-opacity:1"
       id="rect3269"
       width="548.57141"
       height="182.85715"
       x="33600"
       y="-10330.495" />
    <rect
       style="fill:#800000;fill-opacity:1"
       id="rect3271"
       width="274.28571"
       height="365.71429"
       x="33874.285"
       y="-10879.066" />
    <rect
       style="fill:#e9afaf;fill-opacity:1"
       id="rect3273"
       width="365.71429"
       height="365.71429"
       x="35108.57"
       y="-10559.066" />
    <rect
       style="fill:#e9afaf;fill-opacity:1"
       id="rect3275"
       width="320"
       height="228.57143"
       x="34377.141"
       y="-11199.066" />
    <text
       xml:space="preserve"
       style="font-size:40px;font-style:normal;font-weight:normal;line-height:125%;letter-spacing:0px;word-spacing:0px;fill:#000000;fill-opacity:1;stroke:none;font-family:Sans"
       x="27839.998"
       y="-10787.639"
       id="text3277"
       sodipodi:linespacing="125%"><tspan
         sodipodi:role="line"
         id="tspan3279"
         x="27839.998"
         y="-10787.639"
         style="font-size:400px">COMPLETED</tspan></text>
    <path
       inkscape:connector-curvature="0"
       inkscape:original-d="m 31285.401,-10751.901 c 323.248,258.599 323.248,226.274 323.248,226.274 l 387.899,-549.522 -193.949,-96.975 -226.275,452.548 z"
       inkscape:path-effect="#path-effect3283"
       id="path3281"
       d="m 31285.401,-10751.901 323.248,226.274 387.899,-549.522 -193.949,-96.975 -226.275,452.548 -290.923,-32.325"
       style="fill:#000000;stroke:#000000;stroke-width:1px;stroke-linecap:butt;stroke-linejoin:miter;stroke-opacity:1" />
    <rect
       y="-18829.822"
       x="-10341.374"
       height="917.55835"
       width="1324.0927"
       id="rect3169"
       style="fill:#ff0000;fill-opacity:1" />
    <path
       inkscape:connector-curvature="0"
       d="m -9561.9541,-18779.466 c -0.392,52.934 -11.429,105.241 -18.347,157.762 -5.401,42.486 -6.653,85.194 -7.357,127.864 -0.435,40.69 -0.29,81.382 -0.232,122.072 0.06,40.748 0.09,81.495 0.102,122.242 -1.922,17.867 1.838,35.173 5.884,52.609 0,0 -333.127,142.549 -333.127,142.549 l 0,0 c -5,-19.18 -11.074,-38.304 -8.633,-58.109 -0.02,-40.737 -0.03,-81.475 -0.1,-122.213 -0.06,-40.81 -0.209,-81.621 0.07,-122.432 0.518,-43.59 1.416,-87.228 6.573,-130.657 6.567,-51.393 20.12,-102.653 18.558,-154.35 0,0 336.601,-137.337 336.601,-137.337 z"
       id="path3171"
       style="fill:#000000;fill-opacity:1" />
    <path
       inkscape:connector-curvature="0"
       d="m -9963.5331,-18490.533 c 70.788,1.244 141.604,0.751 212.403,0.543 56.316,-0.19 112.632,-0.28 168.948,-0.327 50.9564,-0.03 101.9134,-0.03 152.8704,-0.03 50.8446,0 101.689,0 152.5333,0 48.3083,4.591 92.7017,-4.161 139.293,-11.832 0,0 -301.0933,182.628 -301.0933,182.628 l 0,0 c -47.415,7.539 -94.918,7.605 -143.1734,6.635 -50.848,0 -101.696,0 -152.544,0 -50.924,0 -101.847,0 -152.771,-0.03 -55.942,-0.05 -111.884,-0.136 -167.8249,-0.327 -71.421,-0.212 -142.858,-0.683 -214.268,0.543 0,0 305.6269,-177.811 305.6269,-177.811 z"
       id="path3173"
       style="fill:#000000;fill-opacity:1" />
    <rect
       style="fill:#000000;fill-opacity:1"
       id="rect3285"
       width="45.714287"
       height="914.28571"
       x="-9920"
       y="-17736.209" />
    <text
       xml:space="preserve"
       style="font-size:40px;font-style:normal;font-weight:normal;line-height:125%;letter-spacing:0px;word-spacing:0px;fill:#000000;fill-opacity:1;stroke:none;font-family:Sans"
       x="-9325.7148"
       y="-17233.352"
       id="text3287"
       sodipodi:linespacing="125%"><tspan
         sodipodi:role="line"
         id="tspan3289"
         x="-9325.7148"
         y="-17233.352"
         style="font-size:300px">In Progress</tspan></text>
    <text
       xml:space="preserve"
       style="font-size:40px;font-style:normal;font-weight:normal;line-height:125%;letter-spacing:0px;word-spacing:0px;fill:#000000;fill-opacity:1;stroke:none;font-family:Sans"
       x="-12251.428"
       y="-20341.922"
       id="text3291"
       sodipodi:linespacing="125%"><tspan
         sodipodi:role="line"
         id="tspan3293"
         x="-12251.428"
         y="-20341.922"
         style="font-size:700px">MAIN PAGE</tspan></text>
    <text
       xml:space="preserve"
       style="font-size:40px;font-style:normal;font-weight:normal;line-height:125%;letter-spacing:0px;word-spacing:0px;fill:#000000;fill-opacity:1;stroke:none;font-family:Sans"
       x="4525.7139"
       y="-9233.3516"
       id="text3295"
       sodipodi:linespacing="125%"><tspan
         sodipodi:role="line"
         id="tspan3297"
         x="4525.7139"
         y="-9233.3516"
         style="font-size:700px">ADDING A NEW CLAIM</tspan></text>
    <text
       xml:space="preserve"
       style="font-size:40px;font-style:normal;font-weight:normal;line-height:125%;letter-spacing:0px;word-spacing:0px;fill:#000000;fill-opacity:1;stroke:none;font-family:Sans"
       x="1965.7144"
       y="5349.5049"
       id="text3299"
       sodipodi:linespacing="125%"><tspan
         sodipodi:role="line"
         id="tspan3301"
         x="1965.7144"
         y="5349.5049"
         style="font-size:1000px">EDITING/ADDING TAGS</tspan></text>
    <text
       sodipodi:linespacing="125%"
       id="text3303"
       y="-8898.9141"
       x="-12510.026"
       style="font-size:40px;font-style:normal;font-weight:normal;line-height:125%;letter-spacing:0px;word-spacing:0px;fill:#000000;fill-opacity:1;stroke:none;font-family:Sans"
       xml:space="preserve"><tspan
         style="font-size:700px"
         y="-8898.9141"
         x="-12510.026"
         id="tspan3305"
         sodipodi:role="line">MAIN PAGE</tspan></text>
    <text
       xml:space="preserve"
       style="font-size:40px;font-style:normal;font-weight:normal;line-height:125%;letter-spacing:0px;word-spacing:0px;fill:#000000;fill-opacity:1;stroke:none;font-family:Sans"
       x="-12316.077"
       y="1768.2966"
       id="text3307"
       sodipodi:linespacing="125%"><tspan
         sodipodi:role="line"
         id="tspan3309"
         x="-12316.077"
         y="1768.2966"
         style="font-size:700px">MAIN PAGE</tspan></text>
    <text
       xml:space="preserve"
       style="font-size:40px;font-style:normal;font-weight:normal;line-height:125%;letter-spacing:0px;word-spacing:0px;fill:#000000;fill-opacity:1;stroke:none;font-family:Sans"
       x="23661.813"
       y="1246.3115"
       id="text3311"
       sodipodi:linespacing="125%"><tspan
         sodipodi:role="line"
         id="tspan3313"
         x="23661.813"
         y="1246.3115"
         style="font-size:700px">TAGS LISTS</tspan></text>
  </g>
</svg>
